<svg width="960" height="960" viewBox="0 0 960 960" fill="none" xmlns="http://www.w3.org/2000/svg">
<mask id="mask0_612_2057" style="mask-type:alpha" maskUnits="userSpaceOnUse" x="0" y="0" width="960" height="960">
<circle cx="480" cy="480" r="480" fill="#1E1E1E"/>
</mask>
<g mask="url(#mask0_612_2057)">
<rect width="960" height="960" fill="#1B65BC"/>
</g>
<path d="M703.303 479.311C703.091 475.676 702.719 468.697 702.251 461.724C702.17 460.503 702.417 459.982 703.704 459.787C707.818 459.168 711.926 458.487 716.008 457.682C717.548 457.38 718.056 457.833 718.12 459.305C718.483 467.671 719.087 476.034 719.221 484.405C719.401 495.731 718.393 507.005 716.708 518.203C715.093 528.939 712.757 539.521 709.68 549.943C705.314 564.735 699.497 578.917 692.336 592.572C683.431 609.554 672.543 625.137 659.829 639.465C647.84 652.977 634.444 664.932 619.726 675.391C607.079 684.377 593.666 692.021 579.474 698.317C566.662 703.999 553.466 708.526 539.855 711.83C527.502 714.828 514.984 716.831 502.297 717.765C480.08 719.396 458.056 718.128 436.212 713.647C420.547 710.434 405.376 705.665 390.701 699.364C376.643 693.327 363.322 685.897 350.728 677.194C335.7 666.807 322.033 654.847 309.736 641.334C299.152 629.703 289.817 617.129 281.735 603.642C274.533 591.624 268.447 579.054 263.54 565.919C263.063 564.642 263.197 563.976 264.548 563.453C268.426 561.944 272.273 560.353 276.099 558.719C277.403 558.161 278.048 558.457 278.534 559.777C284.245 575.343 291.799 589.984 300.93 603.802C307.687 614.027 315.261 623.617 323.64 632.576C333.114 642.704 343.396 651.91 354.581 660.102C369.29 670.872 385.088 679.68 401.988 686.54C414.074 691.446 426.494 695.22 439.247 697.866C450.988 700.303 462.852 701.728 474.851 702.213C486.588 702.687 498.276 702.257 509.926 700.896C526.268 698.986 542.177 695.203 557.685 689.678C571.88 684.621 585.357 678.084 598.21 670.262C609.741 663.248 620.464 655.126 630.498 646.092C648.261 630.101 663.075 611.726 674.852 590.938C685.515 572.118 693.202 552.138 697.92 531.001C701.476 515.072 703.239 498.968 703.303 479.311Z" fill="white"/>
<path d="M259.932 410.729C260.428 409.089 260.774 407.768 261.224 406.486C266.991 390.03 274.295 374.31 283.516 359.486C291.113 347.273 299.707 335.842 309.344 325.159C321.801 311.349 335.68 299.18 350.97 288.633C360.795 281.855 371.088 275.844 381.867 270.683C392.825 265.437 404.092 260.976 415.724 257.487C427.357 253.994 439.195 251.418 451.235 249.752C465.476 247.78 479.784 247.082 494.133 247.673C507.245 248.214 520.254 249.851 533.089 252.593C550.131 256.236 566.601 261.66 582.435 268.99C595.906 275.228 608.709 282.617 620.746 291.3C632.189 299.552 642.854 308.723 652.68 318.875C661.134 327.61 668.917 336.889 675.962 346.793C677.154 348.468 677.046 348.689 674.975 349.003C670.3 349.713 665.623 350.405 660.96 351.17C659.856 351.35 659.147 351.085 658.458 350.19C651.047 340.556 642.974 331.51 634.104 323.202C625.275 314.932 615.891 307.351 605.816 300.625C593.721 292.55 580.991 285.676 567.566 280.113C552.267 273.777 536.445 269.22 520.091 266.559C510.548 265.007 500.958 264.073 491.28 263.707C477.669 263.192 464.154 264.018 450.718 266.065C434.146 268.589 418.066 272.986 402.503 279.264C391.66 283.637 381.219 288.805 371.21 294.844C359.299 302.032 348.149 310.256 337.795 319.564C324.195 331.789 312.261 345.438 302.04 360.617C295.216 370.751 289.274 381.359 284.184 392.453C282.706 395.675 281.456 399.001 279.975 402.223C279.635 402.959 278.874 403.727 278.127 404.014C272.622 406.137 267.073 408.144 261.535 410.182C261.12 410.333 260.704 410.464 259.932 410.729Z" fill="white"/>
<path d="M474.764 494.187C473.93 494.429 473.271 494.653 472.597 494.807C453.222 499.262 433.757 503.365 414.489 508.241C390.039 514.429 365.711 521.106 341.409 527.846C330.128 530.975 318.969 534.581 307.856 538.277C292.499 543.383 277.293 548.94 262.413 555.325C247.855 561.574 233.575 568.399 220.374 577.248C213.529 581.836 207.08 586.925 201.763 593.308C200.993 594.23 200.142 595.012 198.87 594.311C197.591 593.608 197.739 592.398 198.178 591.319C200.049 586.701 201.76 581.999 203.957 577.539C209.526 566.224 217.109 556.314 226.106 547.535C235.275 538.588 245.588 531.146 256.791 524.918C265.117 520.289 273.76 516.375 282.653 512.978C296.572 507.663 310.88 503.682 325.531 501.163C337.925 499.035 350.438 497.59 362.907 495.909C370.339 494.906 377.788 494.025 385.231 493.103C387.218 492.856 389.211 492.611 391.207 492.469C391.686 492.434 392.436 492.667 392.651 493.024C397.041 500.309 406.788 501.3 414.672 498.389C418.725 496.895 422.211 494.435 425.372 491.515C426.014 490.922 426.726 490.367 427.22 489.663C428.74 487.496 430.997 487.066 433.382 486.74C444.172 485.275 454.962 483.789 465.743 482.254C469.262 481.753 469.253 481.675 469.927 485.214C470.508 488.27 471.714 490.998 474.006 493.176C474.253 493.417 474.421 493.728 474.764 494.187Z" fill="white"/>
<path d="M454.907 635.184C456.168 636.629 455.988 637.97 455.665 639.244C455.064 641.634 453.437 643.096 451.145 643.899C449.936 644.324 448.736 644.786 447.568 645.312C447.089 645.527 446.708 645.961 445.997 646.516C446.735 646.819 447.153 647.063 447.606 647.167C455.229 648.935 462.954 650.029 470.752 650.616C472.902 650.779 475.055 650.936 477.205 651.102C478.523 651.204 479.076 650.802 478.779 649.319C478.585 648.345 478.869 647.278 478.948 646.135C479.439 646.292 479.648 646.295 479.706 646.391C482.524 650.872 486.905 651.364 491.594 651.087C492.518 651.032 492.869 650.555 492.745 649.665C492.271 646.275 494.058 644.463 496.977 643.198C499.339 642.175 501.998 641.404 503.017 638.557C504.554 639.822 504.482 643.216 502.741 644.8C501.478 645.949 499.851 646.699 498.372 647.609C497.056 648.421 495.725 649.212 494.203 650.131C497.399 651.936 529.853 646.06 534.228 643.027C533.063 642.419 532.067 641.895 531.067 641.375C529.536 640.572 527.831 639.982 526.512 638.918C524.571 637.353 524.188 634.614 525.228 632.489C525.327 632.489 525.495 632.454 525.515 632.494C526.872 635.146 529.403 636.155 531.962 637.124C534.08 637.926 535.722 639.232 536.459 641.453C536.814 642.518 537.54 642.404 538.31 642.119C541.875 640.796 545.489 639.587 548.981 638.092C558.068 634.204 566.805 629.627 575.093 624.224C587.295 616.271 598.358 606.978 608.152 596.178C621.58 581.371 632.096 564.744 639.667 546.235C644.914 533.412 648.462 520.131 650.391 506.432C652.058 494.592 652.604 482.687 651.559 470.747C651.439 469.395 651.762 468.633 653.258 468.424C656.105 468.025 658.941 467.511 661.765 466.97C663.005 466.731 663.598 467.069 663.685 468.377C664.272 477.107 664.403 485.836 663.883 494.571C663.365 503.26 662.183 511.861 660.411 520.379C658.066 531.635 654.661 542.577 650.155 553.15C645.856 563.238 640.739 572.898 634.673 582.057C627.262 593.247 618.747 603.506 609.113 612.831C597.338 624.23 584.245 633.835 569.849 641.674C554.989 649.767 539.312 655.624 522.773 659.2C511.846 661.564 500.824 662.925 489.633 663.251C476.217 663.641 462.905 662.844 449.776 660.142C442.246 658.592 434.826 656.444 427.438 654.28C416.991 651.224 407.142 646.667 397.61 641.462C386.617 635.46 376.376 628.351 366.853 620.197C351.844 607.35 339.291 592.427 329.096 575.518C323.536 566.294 318.902 556.611 315.113 546.52C314.666 545.331 314.91 544.717 316.136 544.339C318.838 543.511 321.534 542.653 324.195 541.702C325.656 541.181 326.348 541.536 327.002 543.002C330.104 549.94 333.097 556.945 336.595 563.685C342.039 574.171 348.936 583.712 356.632 592.668C365.417 602.892 375.333 611.88 386.257 619.767C396.637 627.26 407.715 633.567 419.597 638.287C426.933 641.201 434.567 643.355 442.063 645.865C443.025 646.188 443.577 646.028 443.899 644.957C444.669 642.399 446.47 640.831 448.963 639.973C451.418 639.13 453.87 638.261 454.907 635.184Z" fill="white"/>
<path d="M405.971 470.293C405.256 472.748 404.408 475.176 403.876 477.668C403.539 479.247 403.487 480.945 403.635 482.559C403.842 484.789 404.888 485.185 406.732 483.914C410.62 481.239 413.403 477.543 416.006 473.702C424.614 461 431.052 447.147 437.08 433.116C441.99 421.691 446.455 410.077 451.104 398.539C452.004 396.3 452.859 394.038 453.672 391.766C453.843 391.293 453.748 390.72 453.774 390.193C453.193 390.254 452.461 390.112 452.06 390.411C449.924 391.999 447.713 393.537 445.816 395.39C438.016 403.005 431.566 411.723 425.64 420.831C421.151 427.734 416.967 434.832 414.123 442.593C412.874 446.001 412.162 449.604 411.212 453.123C411.096 453.55 411.018 453.989 410.861 454.684C410.39 454.245 410.07 454.018 409.841 453.724C405.901 448.714 401.991 443.681 398.031 438.688C397.131 437.554 397.552 436.495 398.092 435.533C400.605 431.058 402.918 426.434 405.817 422.218C412.7 412.209 420.855 403.322 430.526 395.91C435.552 392.06 440.651 388.239 446.88 386.553C450.587 385.549 454.398 384.901 458.19 384.232C463.198 383.351 468.233 382.604 473.256 381.807C473.599 381.752 473.95 381.758 474.645 381.711C474.163 383.121 473.718 384.337 473.332 385.573C470.394 394.939 467.257 404.247 464.601 413.692C462.393 421.552 460.502 429.522 458.951 437.539C457.832 443.317 457.405 449.238 456.891 455.114C456.746 456.757 457.379 458.467 457.655 460.148C457.856 460.145 458.056 460.139 458.256 460.136C458.402 459.744 458.573 459.357 458.686 458.956C462.858 444.134 467.992 429.653 474.299 415.608C479.386 404.282 485.144 393.313 493.003 383.607C496.684 379.062 500.914 375.101 506.291 372.566C510.362 370.65 514.499 370.426 518.688 372.147C519.286 372.391 519.833 372.761 520.481 373.118C520.277 373.424 520.207 373.642 520.059 373.732C514.342 377.268 510.579 382.647 506.843 387.992C497.651 401.136 490.26 415.312 483.413 429.775C478.901 439.304 474.659 448.964 471.525 459.04C470.063 463.733 469.113 468.592 468.102 473.414C467.806 474.83 467.271 475.528 465.862 475.583C464.479 475.638 463.088 475.859 461.719 475.763C458.175 475.51 455.746 473.579 454.157 470.453C452.295 466.795 451.554 462.855 451.429 458.831C451.159 450.101 452.376 441.5 454.041 432.954C454.337 431.427 454.642 429.9 454.942 428.374C454.817 428.33 454.692 428.286 454.57 428.243C454.233 428.909 453.896 429.572 453.556 430.238C448.294 440.59 443.181 451.026 437.714 461.267C434.155 467.935 429.899 474.21 424.977 479.982C421.903 483.585 418.667 487.043 414.437 489.358C410.651 491.431 406.732 492.513 402.485 490.875C400.291 490.029 399.156 488.331 398.984 486.045C398.9 484.935 398.964 483.769 399.205 482.681C400.265 477.903 403.019 474.018 405.971 470.293Z" fill="white"/>
<path d="M613.979 358.116C613.168 358.308 612.692 358.457 612.204 358.529C608.343 359.108 604.47 359.629 600.621 360.265C599.357 360.475 598.456 360.094 597.573 359.262C589.253 351.463 580.136 344.717 570.389 338.826C555.721 329.96 540.041 323.498 523.388 319.488C512.624 316.897 501.692 315.452 490.615 314.975C473.372 314.237 456.446 316.249 439.82 320.704C425.148 324.635 411.322 330.634 398.252 338.392C385.042 346.235 373.151 355.732 362.544 366.817C351.751 378.096 342.672 390.632 335.383 404.459C330.235 414.221 326.101 424.393 322.89 434.948C322.771 435.338 322.69 435.855 322.408 436.053C322.004 436.341 321.429 436.39 320.929 436.542C320.828 436.135 320.592 435.71 320.645 435.323C321.011 432.633 321.656 429.964 321.789 427.266C322.016 422.686 320.691 418.414 318.378 414.477C317.824 413.529 317.765 412.764 318.201 411.755C324.982 396.082 333.735 381.609 344.633 368.466C363.401 345.828 386.204 328.52 413.257 316.926C426.926 311.067 441.127 306.952 455.839 304.798C462.536 303.818 469.308 303.225 476.065 302.812C487.12 302.137 498.151 302.78 509.112 304.315C522.956 306.252 536.407 309.727 549.442 314.815C560.198 319.014 570.453 324.193 580.206 330.372C588.82 335.831 596.899 342.001 604.459 348.84C607.277 351.388 609.958 354.089 612.698 356.726C613.055 357.073 613.381 357.465 613.979 358.116Z" fill="white"/>
<path d="M694.46 382.49C688.786 394.163 683.28 405.489 677.772 416.818C677.97 416.94 678.167 417.059 678.365 417.181C678.812 416.626 679.297 416.094 679.701 415.509C686.139 406.152 692.525 396.756 699.027 387.443C700.752 384.968 702.769 382.685 704.765 380.414C706.04 378.963 707.71 378.571 709.674 378.981C712.443 379.559 714.843 380.594 716.531 382.996C717.303 384.096 717.641 385.244 717.155 386.477C716.42 388.335 715.575 390.153 714.738 391.97C711.078 399.955 707.391 407.928 703.748 415.919C703.37 416.751 703.094 417.673 703.007 418.577C702.946 419.205 703.292 419.871 703.454 420.52C704.027 420.249 704.753 420.118 705.145 419.682C706.383 418.312 707.661 416.934 708.631 415.376C713.881 406.96 719.134 398.545 724.201 390.019C727.498 384.468 732.274 381.095 738.361 379.411C745.22 377.515 751.98 378.35 758.473 380.853C764.243 383.078 767.401 387.89 768.926 393.628C771.898 404.814 769.141 415.032 762.855 424.404C755.147 435.896 744.029 442.643 730.923 446.086C723.387 448.066 715.647 449.299 707.963 450.668C695.317 452.919 682.638 454.975 669.983 457.173C649.481 460.735 628.988 464.347 608.491 467.932C608.003 468.017 607.501 468.031 606.876 468.092C606.934 467.732 606.902 467.502 607.001 467.374C608.802 464.998 610.586 462.611 612.457 460.29C612.797 459.869 613.465 459.581 614.026 459.485C623.7 457.833 633.383 456.237 643.058 454.594C650.91 453.259 658.755 451.893 666.599 450.514C679.248 448.29 691.906 446.106 704.538 443.78C712.065 442.393 719.59 440.959 727.036 439.203C736.739 436.914 745.362 432.416 752.213 425.05C758.491 418.301 761.864 410.275 760.568 400.947C759.409 392.589 755.007 386.329 746.916 383.162C742.201 381.316 737.992 382.988 734.145 385.625C728.971 389.173 725.191 394.07 721.839 399.289C718.62 404.305 715.601 409.452 712.318 414.425C709.741 418.33 706.894 422.069 703.132 424.954C701.078 426.53 698.887 427.856 696.122 427.737C693.022 427.603 691.409 426.033 691.279 422.933C691.084 418.414 692.287 414.131 693.89 410.016C696.65 402.933 699.695 395.96 702.615 388.937C702.74 388.635 702.809 388.306 702.623 387.809C702.31 388.17 701.952 388.498 701.691 388.891C695.631 397.94 689.585 407.001 683.524 416.053C681.18 419.554 678.87 423.081 676.436 426.518C674.26 429.595 671.273 430.819 667.546 429.845C665.094 429.205 663.865 427.917 664.164 425.434C664.542 422.296 665.416 419.217 666.122 416.123C666.392 414.948 666.793 413.802 667.133 412.642C667.017 412.587 666.901 412.529 666.785 412.473C666.302 413.171 665.84 413.881 665.338 414.561C660.96 420.479 656.451 426.283 650.736 431.008C647.171 433.957 643.235 436.062 638.45 436.042C634.908 436.027 633.011 434.661 631.928 431.296C630.452 426.713 631.071 422.11 632.093 417.583C633.717 410.391 636.594 403.695 640.835 397.649C643.967 393.186 647.476 389.071 652.999 387.469C656.204 386.538 659.504 386.422 662.772 387.03C666.898 387.794 668.772 390.374 667.926 394.465C666.448 401.618 662.79 407.399 656.419 411.232C654.077 412.639 651.593 412.988 649.074 411.691C648.063 411.171 647.43 411.354 647.029 412.401C645.579 416.184 643.999 419.926 642.744 423.773C642.192 425.463 641.765 427.574 643.604 428.891C645.332 430.133 646.991 428.967 648.473 428.124C652.598 425.774 655.963 422.453 658.816 418.757C663.08 413.23 667.247 407.585 670.933 401.665C673.548 397.463 675.428 392.778 677.377 388.199C678.371 385.861 679.661 384.668 682.293 384.427C685.811 384.104 689.283 383.267 692.775 382.662C693.21 382.586 693.658 382.569 694.46 382.49ZM651.131 409.894C653.206 409.923 655.05 409.324 656.669 407.978C660.695 404.631 663.014 400.266 664.304 395.282C664.443 394.747 664.46 394.157 664.42 393.601C664.327 392.319 663.603 391.801 662.438 392.363C661.349 392.889 660.251 393.549 659.397 394.392C655.248 398.501 652.07 403.343 649.205 408.4C648.644 409.388 649.008 409.833 650.053 409.888C650.414 409.912 650.774 409.894 651.131 409.894Z" fill="white"/>
<path d="M278.856 468.461C279.876 468.633 280.434 468.642 280.928 468.825C282.976 469.584 285.137 470.163 287.005 471.241C289.948 472.943 290.698 475.871 290.527 479.098C290.338 482.704 289.022 485.883 286.944 488.793C283.467 493.664 279.039 497.561 274.298 501.12C264.031 508.831 252.875 514.903 240.67 518.939C236.629 520.277 232.501 521.51 228.143 520.812C223.224 520.021 220.49 516.761 220.65 512.018C220.708 510.312 220.851 510.218 222.425 510.739C224.982 511.579 227.579 511.542 230.194 511.05C231.219 510.855 231.795 510.259 231.998 509.221C234.078 498.712 237.89 488.779 242.32 479.093C245.609 471.902 249.159 464.821 252.863 457.833C256.881 450.255 261.23 442.852 265.394 435.35C266.079 434.117 266.977 433.483 268.386 433.265C273.107 432.535 277.81 431.694 282.523 430.906C282.816 430.857 283.121 430.874 283.888 430.839C275.068 443.858 266.884 456.885 259.824 471.035C260.597 470.942 261.027 470.948 261.422 470.831C269.6 468.395 276.965 464.454 283.606 459.075C289.019 454.69 293.624 449.636 297.081 443.588C298.716 440.726 300.001 437.717 300.401 434.37C301.075 428.743 298.179 425.056 292.493 424.704C288.29 424.445 284.196 425.326 280.213 426.568C266.678 430.79 254.807 437.83 244.778 447.891C239.095 453.594 234.531 460.066 231.551 467.598C230.926 469.177 230.429 469.325 229.337 467.979C228.314 466.717 227.265 465.344 226.737 463.841C224.238 456.752 224.918 450.168 229.927 444.184C239.197 433.102 250.626 424.913 263.45 418.498C269.496 415.474 275.754 413.052 282.372 411.618C287.892 410.426 293.502 409.853 299.053 410.95C309.73 413.055 315.474 421.212 312.888 432.064C311.499 437.9 308.37 442.834 304.501 447.321C297.723 455.173 289.635 461.465 280.902 466.973C280.332 467.336 279.806 467.769 278.856 468.461ZM242.277 507.13C242.39 507.235 242.503 507.343 242.619 507.447C243.471 507.171 244.336 506.936 245.167 506.613C253.424 503.405 261.265 499.363 268.793 494.717C273.261 491.957 277.456 488.828 281.058 484.972C282.764 483.149 284.196 481.151 284.458 478.558C284.702 476.15 283.996 474.824 281.767 473.946C280.396 473.405 278.938 472.96 277.479 472.78C271.204 472.003 265.237 473.129 259.51 475.807C257.849 476.583 256.573 477.607 255.742 479.238C252.041 486.508 248.279 493.745 244.636 501.044C243.665 502.987 243.052 505.098 242.277 507.13Z" fill="white"/>
<path d="M559.161 406.187C558.719 407.135 558.376 407.963 557.958 408.751C552.746 418.612 547.374 428.4 543.316 438.819C542.592 440.674 542.11 442.64 541.709 444.594C541.581 445.225 541.901 446.402 542.331 446.583C542.926 446.833 544.028 446.623 544.545 446.181C545.977 444.954 547.47 443.669 548.499 442.116C552.778 435.649 557.052 429.167 561.02 422.506C564.332 416.949 567.243 411.15 570.262 405.419C570.904 404.198 571.732 403.593 573.086 403.389C577.048 402.79 580.994 402.081 584.948 401.426C585.436 401.345 585.935 401.322 586.784 401.237C586.432 401.991 586.223 402.47 585.985 402.938C580.776 413.203 575.511 423.442 570.392 433.75C569.166 436.222 568.414 438.929 567.446 441.529C567.394 441.671 567.316 441.834 567.336 441.974C567.446 442.689 567.586 443.401 567.717 444.114C568.382 443.829 569.291 443.727 569.672 443.227C572.098 440.04 574.593 436.882 576.711 433.494C580.712 427.091 584.593 420.607 588.286 414.02C590.491 410.083 592.275 405.905 594.177 401.802C594.889 400.272 595.877 399.437 597.62 399.179C601.722 398.568 605.793 397.751 610.249 396.951C609.953 397.681 609.808 398.129 609.595 398.542C605.511 406.495 601.246 414.364 597.399 422.433C595.447 426.533 594.189 430.976 592.768 435.312C592.533 436.03 593.073 437.001 593.257 437.853C594.14 437.603 595.316 437.629 595.857 437.057C597.719 435.088 599.671 433.093 601.025 430.776C606.548 421.331 611.873 411.767 617.245 402.232C618.355 400.263 619.302 398.202 620.423 396.239C620.717 395.724 621.333 395.166 621.885 395.061C626.475 394.18 631.085 393.398 635.69 392.595C635.882 392.563 636.085 392.616 636.544 392.648C636.315 393.252 636.149 393.753 635.937 394.229C631.553 404.093 627.216 413.98 622.762 423.811C617.817 434.73 612.521 445.492 605.633 455.335C602.852 459.308 599.599 463.024 596.138 466.429C592.707 469.805 588.509 471.995 583.382 471.576C580.299 471.323 578.103 469.654 577.609 466.947C577.507 466.382 577.594 465.786 577.594 465.28C577.838 465.187 577.9 465.141 577.931 465.155C582.559 467.229 585.953 464.96 589.07 461.919C592.975 458.107 596.002 453.594 598.399 448.761C602.481 440.526 606.214 432.113 610.086 423.773C610.252 423.416 610.348 423.029 610.159 422.468C609.656 423.247 609.134 424.015 608.657 424.809C605.27 430.459 601.897 436.114 596.702 440.377C593.262 443.201 589.523 445.103 584.881 444.742C581.822 444.504 580.25 443.178 580.311 440.136C580.357 437.894 580.796 435.658 581.075 433.422C581.136 432.936 581.267 432.456 581.363 431.974C581.238 431.907 581.116 431.837 580.991 431.77C580.662 432.221 580.305 432.654 580.009 433.128C576.973 437.97 573.826 442.744 569.654 446.699C568.182 448.098 566.444 449.255 564.704 450.316C563.774 450.883 562.595 451.163 561.494 451.311C557.961 451.782 555.471 449.819 555.672 446.286C555.86 442.983 556.68 439.717 557.264 436.44C557.397 435.696 557.699 434.983 557.607 434.053C557.313 434.463 556.996 434.855 556.726 435.28C553.972 439.621 551.314 444.032 547.557 447.627C544.577 450.476 541.317 452.803 537.107 453.486C531.369 454.417 528.97 452.526 529.461 446.801C529.737 443.564 530.582 440.313 531.608 437.214C534.769 427.673 539.257 418.693 543.734 409.723C544.057 409.08 544.847 408.379 545.524 408.251C549.76 407.443 554.027 406.789 558.283 406.094C558.475 406.059 558.676 406.128 559.161 406.187Z" fill="white"/>
<path d="M345.438 471.067C345.176 471.465 344.909 471.861 344.656 472.265C341.036 478.066 337.573 484.024 332.297 488.52C330.47 490.079 328.242 491.428 325.967 492.137C321.853 493.42 319.012 491.088 319.116 486.79C319.166 484.754 319.66 482.73 319.962 480.704C320.049 480.122 320.168 479.543 320.273 478.965C320.151 478.906 320.029 478.851 319.904 478.793C319.349 479.555 318.785 480.314 318.236 481.079C315.27 485.225 312.246 489.354 308.013 492.309C303.074 495.755 298.057 493.405 297.168 487.435C296.363 482.029 297.531 476.871 299.123 471.808C301.313 464.844 304.422 458.293 309.215 452.709C310.938 450.7 312.899 448.781 315.078 447.301C320.508 443.619 326.011 444.512 331.263 447.836C332.472 448.601 333.108 448.577 333.532 447.254C334.142 445.353 335.423 444.602 337.382 444.346C341.097 443.858 344.775 443.096 348.471 442.462C348.956 442.378 349.456 442.378 350.252 442.314C349.874 443.166 349.642 443.765 349.354 444.332C344.014 454.876 338.619 465.391 333.361 475.972C332.251 478.209 331.565 480.672 330.842 483.079C330.659 483.69 331.071 484.481 331.211 485.187C331.87 484.897 332.762 484.783 333.149 484.283C335.461 481.268 337.759 478.232 339.863 475.071C342.111 471.695 344.238 468.229 346.237 464.696C348.233 461.168 349.874 457.441 351.896 453.931C355.522 447.635 360.283 442.369 366.724 438.824C370.786 436.588 375.149 435.611 379.801 436.117C383.92 436.565 386.494 439.767 386.773 444.762C386.977 448.426 386.152 451.924 384.96 455.335C381.352 465.644 375.719 474.585 367.018 481.367C364.223 483.545 361.074 485.065 357.404 485.057C350.51 485.039 346.219 480.901 345.929 474.004C345.888 473.059 345.923 472.108 345.923 471.16C345.76 471.137 345.6 471.102 345.438 471.067ZM380.748 449.52C380.713 449.217 380.675 448.496 380.539 447.795C379.937 444.704 377.848 443.561 374.99 444.873C373.842 445.399 372.715 446.117 371.794 446.978C365.182 453.166 361.204 460.889 359.104 469.595C358.61 471.643 358.508 473.882 358.732 475.978C359.008 478.552 361.193 479.721 363.619 478.735C364.961 478.191 366.236 477.298 367.305 476.31C371.396 472.532 374.307 467.871 376.791 462.948C378.854 458.851 380.591 454.626 380.748 449.52ZM329.825 453.529C329.433 452.741 329.224 451.555 328.608 451.276C327.896 450.953 326.772 451.29 325.926 451.607C325.241 451.863 324.631 452.448 324.116 453.006C322.937 454.288 321.746 455.58 320.714 456.981C316.278 463.015 312.777 469.584 310 476.522C309.015 478.982 308.457 481.622 307.844 484.213C307.708 484.786 308.17 485.499 308.356 486.147C308.992 485.906 309.698 485.772 310.241 485.4C310.909 484.943 311.493 484.33 312.031 483.713C318.692 476.074 324.099 467.621 328.297 458.403C328.965 456.926 329.282 455.292 329.825 453.529Z" fill="white"/>
<path d="M537.093 409.961C536.803 410.758 536.622 411.374 536.361 411.956C530.67 424.608 525.121 437.324 519.223 449.88C515.313 458.205 510.923 466.31 505.484 473.774C502.55 477.801 499.531 481.782 495.502 484.833C492.414 487.174 489.102 488.953 485.09 488.921C481.754 488.895 478.779 487.717 478.076 484.024C477.978 483.51 478.018 482.966 477.989 482.309C478.457 482.387 478.721 482.376 478.936 482.474C482.562 484.117 485.572 482.791 488.248 480.395C493.024 476.118 496.539 470.86 499.436 465.205C502.477 459.261 505.313 453.213 508.227 447.205C508.346 446.958 508.337 446.649 508.14 446.254C507.088 447.731 506.152 449.313 504.961 450.668C502.384 453.588 499.729 456.44 497.004 459.22C495.296 460.965 493.067 461.343 490.714 460.979C488.033 460.567 485.897 457.618 485.595 454.073C485.177 449.179 485.912 444.425 487.362 439.778C489.819 431.895 493.332 424.555 499.006 418.443C500.493 416.841 502.204 415.343 504.067 414.212C509.046 411.191 514.101 411.77 518.967 414.596C520.089 415.247 520.533 415.035 520.85 413.962C521.181 412.837 521.919 412.342 523.064 412.15C527.218 411.458 531.361 410.688 535.51 409.967C535.94 409.897 536.396 409.961 537.093 409.961ZM518.273 420.726C517.785 419.868 517.541 418.873 516.925 418.522C516.373 418.205 515.214 418.327 514.676 418.728C513.212 419.824 511.728 421.014 510.618 422.45C505.048 429.659 500.842 437.641 497.666 446.164C497.027 447.882 496.702 449.732 496.388 451.549C496.289 452.113 496.536 453.041 496.943 453.297C497.297 453.521 498.207 453.178 498.677 452.829C499.534 452.189 500.307 451.41 501.007 450.598C506.527 444.181 511.155 437.141 515.019 429.633C516.434 426.873 517.181 423.776 518.273 420.726Z" fill="white"/>
<path d="M508.078 403.773C509.452 401.618 510.765 399.42 512.244 397.341C512.584 396.861 513.47 396.643 514.141 396.544C525.367 394.863 536.602 393.229 547.83 391.563C560.227 389.725 572.621 387.844 585.02 386.018C600.569 383.729 616.129 381.502 631.678 379.21C644.789 377.277 657.889 375.282 670.997 373.331C688.423 370.74 705.851 368.16 723.277 365.584C737.097 363.54 750.92 361.513 764.737 359.446C766.036 359.251 766.408 359.579 766.181 360.894C765.524 364.735 765.574 364.843 761.782 365.439C752.547 366.895 743.294 368.224 734.055 369.646C721.821 371.528 709.596 373.479 697.359 375.34C681.77 377.713 666.169 380.001 650.579 382.377C639.104 384.125 627.643 385.977 616.167 387.736C606.925 389.152 597.672 390.481 588.428 391.886C571.569 394.445 554.71 397.024 537.854 399.609C528.917 400.979 519.987 402.38 511.053 403.764C510.15 403.904 509.243 404.009 508.337 404.131C508.252 404.012 508.165 403.892 508.078 403.773Z" fill="white"/>
<path d="M518.232 386.73C519.83 384.197 521.126 381.999 522.596 379.923C522.93 379.452 523.848 379.286 524.531 379.184C535.048 377.596 545.568 376.041 556.087 374.485C568.995 372.575 581.903 370.664 594.814 368.771C610.316 366.497 625.824 364.255 641.324 361.967C654.182 360.068 667.029 358.105 679.885 356.206C695.994 353.827 712.112 351.495 728.225 349.123C741.185 347.212 754.142 345.27 767.102 343.345C770.258 342.876 770.258 342.882 769.531 345.962C768.907 348.611 768.901 348.576 766.138 349C753.75 350.902 741.365 352.842 728.977 354.735C720.041 356.101 711.093 357.404 702.153 358.765C686.207 361.193 670.26 363.636 654.316 366.081C638.015 368.582 621.716 371.1 605.415 373.592C588.402 376.192 571.386 378.768 554.37 381.359C542.994 383.092 531.62 384.84 520.243 386.573C519.749 386.654 519.243 386.657 518.232 386.73Z" fill="white"/>
<path d="M405.957 546.119C406.567 546.436 406.893 546.706 407.262 546.785C412.921 548.018 414.769 553.723 413.461 558.71C411.349 566.771 405.864 571.513 398.081 573.52C392.474 574.965 386.704 575.773 381.001 576.846C378.892 577.245 378.456 576.89 378.599 574.77C379.372 563.293 380.176 551.815 380.961 540.338C381.225 536.494 381.449 532.65 381.719 528.808C381.902 526.18 382.172 525.831 384.703 525.334C389.941 524.301 395.173 523.208 400.443 522.365C404.232 521.757 407.965 522.03 410.992 524.871C413.97 527.666 414.426 531.202 413.682 534.956C412.947 538.669 410.838 541.618 408.069 544.127C407.404 544.732 406.762 545.36 405.957 546.119ZM404.028 556.686C404.005 553.598 401.64 551.437 398.59 551.906C395.806 552.33 393.044 552.909 390.301 553.554C389.781 553.677 389.075 554.412 389.029 554.918C388.689 558.489 388.517 562.074 388.253 565.651C388.171 566.745 388.636 567.015 389.621 566.82C392.085 566.337 394.56 565.907 397.018 565.41C401.167 564.566 404.06 560.946 404.028 556.686ZM404.162 535.886C404.176 532.464 402.273 530.684 398.889 531.12C396.6 531.414 394.339 531.934 392.056 532.301C390.885 532.49 390.408 533.147 390.336 534.281C390.124 537.564 389.874 540.844 389.636 544.124C389.551 545.282 390.057 545.738 391.207 545.517C393.325 545.107 395.464 544.796 397.564 544.307C401.53 543.386 404.147 539.986 404.162 535.886Z" fill="white"/>
<path d="M558.945 538.995C559.512 530.635 560.105 521.867 560.703 513.1C561.148 506.589 561.636 500.082 562.022 493.568C562.118 491.966 562.742 491.149 564.329 490.849C571.243 489.544 578.123 488.031 585.06 486.86C593.555 485.426 600.104 492.536 598.465 501.262C597.297 507.471 593.762 512.138 588.611 515.598C587.306 516.473 587.065 517.136 587.82 518.552C590.261 523.132 592.562 527.785 594.9 532.417C596.135 534.857 595.801 535.552 593.131 536.125C591.324 536.511 589.497 536.82 587.698 537.247C586.478 537.535 585.781 537.122 585.27 536.005C582.977 531.01 580.589 526.055 578.341 521.039C577.69 519.588 576.891 519.125 575.354 519.544C573.823 519.963 572.237 520.187 570.665 520.44C569.628 520.608 569.178 521.172 569.117 522.205C568.809 527.282 568.431 532.356 568.155 537.436C567.981 540.644 567.757 540.998 564.657 541.621C563.498 541.853 562.339 542.08 561.174 542.269C559.175 542.592 558.942 542.377 558.945 540.327C558.945 540.021 558.945 539.71 558.945 538.995ZM570.003 509.486C570.011 509.486 570.02 509.486 570.029 509.489C569.994 510.155 569.982 510.826 569.915 511.489C569.817 512.487 570.206 513.001 571.234 512.798C575.011 512.056 578.834 511.478 582.547 510.48C586.641 509.381 589.674 504.932 589.473 500.928C589.305 497.56 586.504 495.194 583.181 495.752C579.689 496.339 576.226 497.116 572.736 497.726C571.313 497.973 570.767 498.721 570.688 500.108C570.511 503.237 570.238 506.36 570.003 509.486Z" fill="white"/>
<path d="M481.969 534.194C481.821 535.962 481.653 537.727 481.528 539.495C481.179 544.517 480.868 549.544 480.502 554.563C480.29 557.471 479.91 557.861 477.112 558.428C475.703 558.713 474.3 559.042 472.882 559.28C471.499 559.513 470.819 558.905 470.909 557.492C471.403 549.646 471.923 541.804 472.435 533.961C472.821 528.015 473.196 522.068 473.599 516.121C473.739 514.071 473.966 512.03 474.122 509.98C474.218 508.718 474.907 507.991 476.095 507.75C477.856 507.392 479.616 507.011 481.397 506.784C483.271 506.546 483.73 507.052 483.602 508.913C483.225 514.397 482.841 519.878 482.472 525.363C482.428 526.008 482.466 526.657 482.466 527.791C483.245 526.933 483.762 526.418 484.218 525.851C489.909 518.759 495.601 511.669 501.26 504.551C502.26 503.292 503.343 502.382 505.037 502.19C506.664 502.007 508.25 501.498 509.874 501.256C510.458 501.169 511.094 501.448 511.707 501.559C511.571 502.263 511.632 503.1 511.263 503.641C510.22 505.162 509.003 506.566 507.849 508.011C502.692 514.476 497.553 520.957 492.35 527.386C491.493 528.445 491.51 529.152 492.408 530.152C497.527 535.84 502.599 541.571 507.672 547.302C508.317 548.029 508.959 548.78 509.47 549.603C510.208 550.789 509.868 551.955 508.526 552.275C505.836 552.918 503.102 553.435 500.36 553.781C499.755 553.857 498.884 553.147 498.393 552.577C493.436 546.811 488.527 541.007 483.623 535.194C483.265 534.77 483.062 534.214 482.786 533.723C482.513 533.877 482.243 534.037 481.969 534.194Z" fill="white"/>
<path d="M517.285 546.834C518.185 534.127 519.086 521.42 519.981 508.712C520.143 506.406 520.262 504.097 520.405 501.791C520.541 499.57 520.835 499.186 523.081 498.744C528.322 497.715 533.568 496.723 538.815 495.726C542.548 495.016 546.282 494.31 550.018 493.62C551.97 493.26 552.478 493.734 552.333 495.682C552.252 496.758 552.176 497.834 552.121 498.913C552.002 501.286 551.627 501.78 549.332 502.231C543.234 503.423 537.139 504.63 531.023 505.723C529.568 505.982 529.033 506.61 528.978 508.041C528.874 510.812 528.627 513.577 528.429 516.345C528.295 518.238 528.473 518.422 530.378 518.058C535.123 517.16 539.861 516.244 544.6 515.328C547.153 514.833 547.563 515.2 547.339 517.753C547.243 518.826 547.197 519.905 547.133 520.983C547.02 522.903 546.526 523.542 544.626 523.917C539.739 524.88 534.844 525.813 529.949 526.726C527.656 527.154 527.572 527.232 527.473 529.599C527.351 532.472 527.212 535.348 527.052 538.218C526.939 540.231 527.008 540.335 529.059 539.946C534.861 538.846 540.657 537.715 546.456 536.599C546.807 536.532 547.165 536.482 547.519 536.424C548.859 536.203 549.46 536.785 549.37 538.125C549.268 539.611 549.14 541.097 549.082 542.583C549.024 544.066 548.257 544.773 546.837 545.04C540.024 546.323 533.223 547.654 526.413 548.963C524.094 549.408 521.776 549.87 519.449 550.271C517.378 550.629 517.102 550.344 517.258 548.227C517.293 547.765 517.317 547.303 517.343 546.843C517.325 546.837 517.305 546.837 517.285 546.834Z" fill="white"/>
<path d="M456.665 562.36C455.462 562.362 454.878 561.662 454.486 560.667C453.789 558.899 453.03 557.152 452.368 555.372C451.967 554.296 451.319 554.023 450.221 554.235C444.073 555.436 437.917 556.605 431.758 557.745C430.59 557.96 429.823 558.507 429.329 559.603C428.272 561.944 427.116 564.238 426.041 566.57C425.428 567.899 424.481 568.646 422.999 568.832C421.421 569.033 419.867 569.423 418.292 569.635C417.793 569.702 417.017 569.638 416.791 569.327C416.546 568.992 416.654 568.231 416.863 567.768C418.005 565.241 419.225 562.746 420.419 560.243C426.416 547.675 432.415 535.11 438.408 522.542C439.602 520.038 440.776 517.523 441.953 515.011C442.415 514.025 443.083 513.028 444.219 513.336C444.928 513.528 445.666 514.403 445.976 515.144C451.903 529.32 457.769 543.519 463.646 557.716C464.692 560.243 464.34 560.856 461.644 561.359C459.98 561.67 458.326 562.025 456.665 562.36ZM442.531 531.696C442.06 532.394 441.694 532.81 441.47 533.295C439.274 537.992 437.092 542.691 434.939 547.407C434.724 547.881 434.73 548.457 434.634 548.983C435.175 549.021 435.738 549.169 436.253 549.073C439.934 548.39 443.6 547.617 447.284 546.957C448.591 546.724 448.736 546.18 448.263 545.052C446.627 541.173 445.061 537.268 443.452 533.38C443.243 532.885 442.938 532.432 442.531 531.696Z" fill="white"/>
<path d="M623.024 496.895C623.532 496.205 623.875 495.778 624.174 495.321C627.922 489.671 631.626 483.99 635.446 478.389C635.958 477.642 636.98 477.063 637.878 476.798C639.644 476.281 641.486 475.99 643.314 475.72C643.909 475.632 644.56 475.894 645.185 475.996C645.045 476.659 645.086 477.438 644.74 477.967C640.928 483.821 637.053 489.637 633.201 495.464C631.443 498.122 629.79 500.852 627.913 503.423C626.405 505.487 626.716 507.843 626.53 510.091C626.074 515.618 625.798 521.161 625.458 526.697C625.275 529.681 624.979 530.047 622.024 530.658C620.818 530.908 619.61 531.161 618.39 531.327C616.423 531.594 616.028 531.146 616.173 529.155C616.652 522.545 617.079 515.932 617.579 509.326C617.71 507.601 617.292 506.179 616.278 504.737C611.99 498.648 607.806 492.483 603.599 486.339C602.35 484.516 602.733 483.53 604.883 483.068C606.789 482.655 608.715 482.332 610.621 481.919C611.661 481.692 612.379 481.998 612.989 482.873C615.833 486.961 618.712 491.032 621.588 495.101C621.963 495.636 622.405 496.124 623.024 496.895Z" fill="white"/>
<path d="M504.778 487.86C506.112 486.255 507.184 485.036 508.175 483.76C510.031 481.364 511.771 478.875 513.712 476.548C514.334 475.801 515.371 475.112 516.306 474.963C530.106 472.765 543.92 470.666 557.729 468.534C560.977 468.034 564.228 467.543 567.464 466.973C568.673 466.76 569.178 467.051 569.466 468.328C569.835 469.962 570.442 471.576 571.186 473.082C571.842 474.414 571.459 474.734 570.166 474.981C561.535 476.615 552.909 478.284 544.295 479.997C532.053 482.434 519.819 484.92 507.579 487.38C506.795 487.534 506.001 487.651 504.778 487.86Z" fill="white"/>
<path d="M337.891 414.218C338.1 410.81 340.287 408.472 343.326 408.019C353.686 406.472 364.035 404.864 374.392 403.287C388.86 401.086 403.328 398.894 417.796 396.704C418.534 396.594 419.283 396.544 419.957 396.471C418.069 398.498 416.271 400.505 414.371 402.412C413.99 402.793 413.24 402.872 412.642 402.965C390.719 406.335 368.793 409.691 346.865 413.04C344.427 413.413 341.987 413.747 339.547 414.084C339.003 414.157 338.454 414.172 337.891 414.218Z" fill="white"/>
<path d="M331.461 430.854C332.225 429.101 332.771 427.49 333.628 426.065C333.968 425.501 334.968 425.166 335.717 425.047C344.288 423.68 352.87 422.369 361.449 421.055C375.562 418.894 389.676 416.736 403.789 414.587C404.376 414.497 404.975 414.491 405.564 414.445C405.643 414.57 405.721 414.695 405.8 414.82C404.123 416.658 402.691 418.853 400.692 420.211C399.254 421.191 397.07 421.121 395.202 421.409C379.211 423.872 363.218 426.315 347.225 428.749C342.451 429.476 337.672 430.156 332.896 430.845C332.553 430.898 332.199 430.854 331.461 430.854Z" fill="white"/>
<path d="M429.178 671.809C428.321 675.176 427.461 678.543 426.61 681.914C426.319 683.059 426.011 684.199 425.773 685.357C425.471 686.822 424.573 686.906 423.347 686.589C422.127 686.275 421.154 685.845 421.502 684.327C421.938 682.425 422.403 680.529 422.876 678.636C423.98 674.202 425.096 669.77 426.212 665.339C426.386 664.641 426.511 663.914 426.81 663.271C427.109 662.626 427.595 662.067 427.998 661.471C428.486 661.951 429.105 662.358 429.442 662.928C430.648 664.958 431.761 667.043 432.902 669.11C434.564 672.123 436.211 675.144 437.879 678.154C438.268 678.857 438.727 679.523 439.384 680.57C439.695 679.73 439.913 679.259 440.041 678.764C441.017 674.987 441.964 671.198 442.949 667.424C443.405 665.676 443.663 665.554 445.465 665.993C447.44 666.476 447.641 666.7 447.211 668.442C445.47 675.522 443.71 682.597 441.911 689.663C441.778 690.192 441.278 690.629 440.95 691.111C440.468 690.722 439.805 690.431 439.535 689.928C436.583 684.461 433.696 678.959 430.779 673.472C430.456 672.864 430.055 672.297 429.692 671.71C429.515 671.745 429.346 671.777 429.178 671.809Z" fill="white"/>
<path d="M544.365 677.665C544.414 684.362 541.099 688.235 535.887 688.416C532.976 688.517 530.617 687.322 528.979 685.028C525.719 680.463 524.205 675.336 525.106 669.735C525.728 665.877 528.194 663.591 532.055 662.853C535.466 662.201 538.133 663.516 540.164 666.13C542.976 669.738 544.068 673.99 544.365 677.665ZM529.197 672.466C529.598 676.104 530.245 679.677 532.68 682.614C533.703 683.85 535.03 684.656 536.742 684.202C538.476 683.746 539.443 682.498 539.658 680.791C540.234 676.214 539.17 672.024 536.28 668.401C535.263 667.127 533.83 666.548 532.148 667.04C530.521 667.514 529.792 668.758 529.473 670.303C529.33 671 529.29 671.722 529.197 672.466Z" fill="white"/>
<path d="M566.973 670.695C566.97 677.529 563.275 681.251 557.761 680.698C556.224 680.544 554.457 679.872 553.336 678.849C548.821 674.728 546.631 669.485 546.854 663.335C546.991 659.543 549.103 657.141 552.592 655.949C556.061 654.766 559.12 655.659 561.569 658.299C565.061 662.062 566.697 666.633 566.973 670.695ZM562.662 671.204C562.177 667.822 561.014 664.01 557.961 661.006C556.654 659.718 555.137 659.357 553.443 660.032C551.799 660.689 551.183 662.108 551.201 663.742C551.247 667.886 552.653 671.579 555.268 674.772C556.511 676.293 558.115 677.162 560.16 676.458C561.805 675.897 562.647 674.312 562.662 671.204Z" fill="white"/>
<path d="M588.823 661.16C588.829 665.536 587.315 668.194 584.023 669.709C580.648 671.262 577.542 670.776 574.715 668.366C571.313 665.464 569.253 661.716 568.059 657.493C566.758 652.887 568.126 649.069 571.618 646.961C575.308 644.734 578.922 645.129 582.519 648.621C586.234 652.227 588.431 656.697 588.823 661.16ZM584.48 661.529C584.041 658.319 582.437 655.045 579.907 652.23C579.268 651.521 578.469 650.884 577.62 650.445C574.884 649.028 572.005 650.57 572.057 653.643C572.141 658.604 574.358 662.727 578.373 665.583C581.339 667.691 584.43 665.784 584.48 661.529Z" fill="white"/>
<path d="M476.371 682.216C476.371 678.721 476.411 675.226 476.35 671.733C476.327 670.314 476.783 669.683 478.294 669.698C482.3 669.738 486.31 669.695 490.316 669.613C491.795 669.584 492.291 670.18 492.294 671.628C492.297 673.082 491.786 673.655 490.316 673.652C487.751 673.649 485.182 673.844 482.617 673.859C481.385 673.868 480.885 674.295 480.851 675.566C480.734 679.919 480.7 679.919 484.999 679.913C486.336 679.913 487.672 679.922 489.006 679.898C490.696 679.872 490.644 681.044 490.694 682.225C490.746 683.429 490.325 684.08 489.043 684.077C487.039 684.071 485.034 684.144 483.032 684.121C481.702 684.106 481.008 684.566 481.127 686.017C481.217 687.09 481.185 688.177 481.147 689.253C481.1 690.567 481.751 690.916 482.969 690.861C485.534 690.745 488.105 690.759 490.67 690.66C492.088 690.605 492.573 691.265 492.588 692.609C492.602 693.929 492.303 694.839 490.76 694.845C486.649 694.862 482.539 694.883 478.428 694.938C477.056 694.955 476.658 694.249 476.67 693.007C476.699 689.407 476.682 685.81 476.682 682.21C476.58 682.219 476.475 682.219 476.371 682.216Z" fill="white"/>
<path d="M462.623 668.142C466.036 668.267 468.953 669.331 471.411 671.614C472.041 672.198 472.832 672.762 471.969 673.789C470.621 675.391 469.714 675.696 468.593 674.827C465.229 672.222 461.446 671.896 458.46 673.955C455.232 676.179 453.927 680.279 455.185 684.225C456.676 688.898 461.74 690.945 466.658 688.834C467.541 688.456 468.279 688.067 469.087 689.084C470.784 691.216 470.673 691.858 468.16 693.051C461.728 696.104 453.864 693.126 450.996 686.746C447.699 679.413 451.772 671.573 457.884 669.308C459.404 668.747 461.042 668.52 462.623 668.142Z" fill="white"/>
<path d="M399.731 677.476C395.777 677.159 392.758 675.278 390.655 671.925C389.766 670.509 389.993 670.134 391.753 668.889C392.982 668.023 393.392 668.84 394.051 669.645C394.981 670.782 395.957 671.948 397.134 672.792C398.545 673.804 400.402 673.516 401.396 672.475C402.389 671.434 402.511 669.895 401.454 668.357C400.353 666.752 399.019 665.31 397.845 663.751C395.533 660.675 395.303 657.866 397.07 655.03C398.423 652.858 401.172 651.648 403.708 652.026C407.145 652.535 409.606 654.51 411.654 657.153C412.369 658.075 412.261 658.819 411.273 659.471C410.317 660.102 409.434 660.907 408.333 659.657C407.459 658.662 406.602 657.592 405.541 656.833C403.906 655.661 402.375 655.766 401.311 656.816C400.242 657.871 400.213 659.334 401.369 661.032C402.029 662.003 402.912 662.821 403.595 663.78C404.629 665.237 405.852 666.641 406.509 668.267C408.417 672.986 404.832 677.735 399.731 677.476Z" fill="white"/>
<path d="M513.328 688.831C514.161 688.791 514.702 688.808 515.231 688.733C516.756 688.514 518.275 688.244 519.801 688.02C521.491 687.77 522.011 688.23 522.171 689.957C522.255 690.884 521.947 691.446 520.992 691.588C516.675 692.239 512.363 692.932 508.04 693.536C506.686 693.725 506.312 692.929 507.073 691.539C509.045 687.933 511.059 684.345 513.049 680.748C513.572 679.803 514.08 678.852 514.589 677.901C515.916 675.417 515.745 673.239 514.127 672.018C512.311 670.649 510.077 670.986 508.029 672.937C506.567 674.327 506.146 674.344 504.824 673.222C504.101 672.606 504.034 672.009 504.537 671.213C506.614 667.938 511.529 666.255 515.164 667.601C519.356 669.154 521.07 673.818 518.926 678.096C517.363 681.219 515.661 684.269 514.025 687.357C513.819 687.744 513.647 688.148 513.328 688.831Z" fill="white"/>
<path d="M421.744 660.544C421.273 661.858 420.739 663.353 420.201 664.845C418.232 670.3 416.265 675.752 414.289 681.204C413.63 683.025 413.336 683.057 411.091 682.353C409.507 681.858 409.653 680.908 410.083 679.718C412.523 672.96 414.966 666.203 417.36 659.43C417.805 658.171 418.496 657.947 419.565 658.564C420.373 659.032 421.73 658.854 421.744 660.544Z" fill="white"/>
<path d="M537.491 582.563C537.616 583.561 537.619 584.593 537.898 585.544C538.362 587.137 538.708 588.891 539.641 590.197C541.119 592.267 541.41 594.262 540.495 596.536C540.076 597.58 539.722 598.661 539.199 599.653C538.447 601.075 536.945 601.13 535.989 599.848C533.813 596.934 533.708 592.511 535.864 589.67C536.91 588.292 537.133 586.829 536.945 585.183C536.846 584.317 536.927 583.43 536.927 582.555C537.116 582.558 537.302 582.56 537.491 582.563Z" fill="white"/>
<path d="M491.483 596.216C491.544 596.85 491.634 597.484 491.661 598.118C491.751 600.493 492.384 602.668 493.953 604.512C494.955 605.69 495.339 607.097 494.932 608.545C494.453 610.261 493.808 611.944 493.075 613.573C492.567 614.701 491.181 614.774 490.237 613.872C488.291 612.011 487.582 606.341 489.273 604.192C490.696 602.383 491.123 600.499 490.856 598.309C490.772 597.632 490.911 596.925 490.949 596.233C491.126 596.227 491.306 596.222 491.483 596.216Z" fill="white"/>
<path d="M443.687 585.925C443.687 586.591 443.771 587.268 443.672 587.92C443.379 589.839 443.667 591.496 444.954 593.099C446.865 595.48 446.522 600.662 444.524 602.93C443.362 604.247 441.944 604.131 441.212 602.578C440.666 601.421 440.154 600.223 439.832 598.99C439.306 596.981 439.617 595.198 440.831 593.314C441.924 591.619 442.275 589.441 442.911 587.46C443.062 586.989 443.042 586.466 443.097 585.966C443.292 585.954 443.489 585.939 443.687 585.925Z" fill="white"/>
<path d="M535.57 633.803C534.225 630.468 531.212 629.851 528.583 628.665C525.201 627.141 524.08 625.277 524.478 621.794C524.53 621.322 524.728 620.869 524.954 620.075C525.347 620.657 525.486 620.968 525.716 621.186C526.686 622.116 527.566 623.224 528.702 623.881C530.239 624.774 532.037 625.204 533.621 626.027C536.221 627.382 537.203 630.962 535.57 633.803Z" fill="white"/>
<path d="M455.212 623.497C456.888 625.353 456.342 628.723 454.23 630.36C453.312 631.072 452.217 631.578 451.153 632.073C448.8 633.166 446.101 633.751 445.148 636.725C443.768 635.286 443.977 631.669 445.555 630.276C446.679 629.284 448.065 628.464 449.474 627.941C451.833 627.068 454.105 626.208 455.212 623.497Z" fill="white"/>
<path d="M441.156 641.57C439.738 638.301 436.877 637.415 434.323 636.048C430.869 634.201 429.866 632.207 430.593 629.153C430.689 628.746 430.901 628.362 431.264 627.449C432.763 630.956 435.781 631.669 438.402 632.977C441.592 634.571 442.681 637.633 441.156 641.57Z" fill="white"/>
<path d="M489.439 647.49C488.491 644.492 485.891 643.786 483.465 642.794C482.382 642.349 481.356 641.736 480.363 641.105C478.582 639.973 477.411 636.464 479.273 634.108C480.429 637.237 483.248 637.903 485.885 638.9C489.575 640.296 491.1 643.155 490.139 646.662C490.075 646.891 489.941 647.098 489.837 647.316C489.706 647.374 489.572 647.432 489.439 647.49Z" fill="white"/>
<path d="M441.331 630.02C440.544 626.862 438.182 625.821 435.808 624.771C434.919 624.378 434.071 623.893 433.217 623.425C431.729 622.61 431.023 621.319 431.006 619.642C430.994 618.342 431.003 617.039 431.003 615.739C431.195 615.693 431.384 615.646 431.575 615.6C431.799 615.928 431.979 616.303 432.258 616.58C433.359 617.667 434.426 618.804 435.637 619.758C436.34 620.31 437.293 620.543 438.13 620.933C443.06 623.224 442.185 624.53 441.872 629.275C441.863 629.397 441.706 629.514 441.331 630.02Z" fill="white"/>
<path d="M548.984 624.762C550.806 626.571 550.434 629.837 548.397 631.488C547.529 632.195 546.547 632.791 545.544 633.291C543.171 634.475 540.588 635.353 539.522 638.339C537.793 635.112 538.819 631.573 541.64 630.148C542.465 629.732 543.287 629.307 544.138 628.95C546.192 628.086 548.118 627.077 548.984 624.762Z" fill="white"/>
<path d="M502.965 626.405C504.409 629.7 503.407 632.893 500.513 634.498C499.886 634.844 499.255 635.196 498.599 635.481C496.266 636.49 494.073 637.653 493.108 640.366C491.406 637.467 492.309 633.812 494.935 632.326C495.781 631.846 496.641 631.378 497.536 631.003C500.307 629.834 500.316 629.854 502.965 626.405Z" fill="white"/>
<path d="M456.61 599.763C456.645 600.883 456.857 602.032 456.674 603.113C456.302 605.329 454.957 607.004 452.955 607.937C450.152 609.243 446.906 609.833 445.66 613.393C445.468 613.317 445.274 613.241 445.082 613.163C444.951 612.317 444.629 611.45 444.725 610.633C445.085 607.542 446.854 605.48 449.724 604.355C450.489 604.055 451.285 603.837 452.057 603.558C453.931 602.878 455.308 601.662 455.852 599.572C456.104 599.636 456.357 599.699 456.61 599.763Z" fill="white"/>
<path d="M478.518 610.325C479.619 613.62 482.55 614.198 485.212 615.213C488.038 616.292 489.999 619.246 489.761 622.044C489.709 622.666 489.468 623.271 489.314 623.887C489.012 623.809 488.855 623.815 488.828 623.756C487.594 621.107 485.264 619.994 482.661 619.104C479.761 618.112 477.928 616.074 477.69 612.904C477.629 612.11 477.922 611.287 478.056 610.479C478.207 610.424 478.361 610.374 478.518 610.325Z" fill="white"/>
<path d="M658.156 435.858C658.676 438.217 659.176 440.302 659.548 442.407C659.597 442.692 659.031 443.335 658.676 443.401C655.396 444.012 652.105 444.576 648.796 445.018C648.406 445.071 647.654 444.367 647.538 443.896C647.424 443.445 647.764 442.616 648.168 442.34C651.123 440.316 654.141 438.388 657.142 436.434C657.346 436.3 657.569 436.19 658.156 435.858Z" fill="white"/>
<path d="M535.251 610.104C534.934 610.066 534.85 610.078 534.839 610.055C533.525 607.056 530.722 606.141 528 605.041C525.463 604.015 524.022 601.991 523.653 599.304C523.546 598.516 523.868 597.67 523.993 596.85C524.38 596.917 524.545 596.902 524.569 596.955C525.795 599.528 528.194 600.389 530.643 601.279C534.019 602.506 535.992 605.329 535.73 608.374C535.681 608.97 535.411 609.554 535.251 610.104Z" fill="white"/>
<path d="M538.656 626.362C538.563 624.803 538.293 623.265 538.455 621.776C538.548 620.927 539.202 619.973 539.882 619.397C540.84 618.58 542.008 617.961 543.173 617.449C545.547 616.411 547.996 615.53 548.606 612.439C548.743 612.488 548.876 612.538 549.013 612.587C549.132 612.916 549.344 613.244 549.353 613.576C549.515 619.014 549.617 619.197 545.018 621.567C544.245 621.965 543.336 622.174 542.677 622.701C541.337 623.78 540.123 625.012 538.656 626.362Z" fill="white"/>
<path d="M492.506 628.028C491.623 626.885 491.809 623.285 493.146 621.849C493.895 621.043 494.831 620.322 495.821 619.854C498.451 618.612 501.359 617.807 502.561 614.591C502.893 614.884 503.11 614.983 503.166 615.14C504.008 617.531 502.288 621.7 500.005 622.84C498.814 623.436 497.527 623.899 496.452 624.664C495.051 625.661 493.814 626.897 492.506 628.028Z" fill="white"/>
<path d="M441.798 617.725C440.34 614.791 437.71 613.666 435.16 612.549C431.999 611.165 431.389 608.449 431.107 605.506C431.06 605.024 431.4 604.503 431.638 603.759C432.025 604.215 432.281 604.404 432.382 604.654C433.082 606.347 434.425 607.283 436.034 607.99C437.44 608.609 438.87 609.229 440.151 610.06C442.423 611.546 443.161 614.881 441.798 617.725Z" fill="white"/>
<path d="M548.705 600.889C550.093 603.073 548.859 607.426 546.494 608.813C545.122 609.615 543.6 610.179 542.287 611.063C540.974 611.95 539.841 613.102 538.496 614.25C538.574 614.317 538.304 614.201 538.243 614.015C537.209 610.79 538.592 607.606 541.651 606.14C542.252 605.853 542.891 605.64 543.493 605.352C546.639 603.829 546.476 604.268 548.705 600.889Z" fill="white"/>
<path d="M445.424 625.111C443.765 622.48 444.466 619.118 446.737 617.711C447.775 617.068 448.925 616.591 450.07 616.152C452.4 615.257 454.526 614.131 455.598 611.575C456.906 613.564 456.662 616.487 455.02 617.923C454 618.816 452.763 619.528 451.514 620.072C449.065 621.136 446.45 621.91 445.424 625.111Z" fill="white"/>
<path d="M524.903 608.15C526.225 611.808 529.188 612.581 531.951 613.64C535.091 614.846 536.448 616.987 535.946 620.025C535.861 620.537 535.623 621.026 535.254 621.61C533.694 618.228 530.269 617.789 527.561 616.283C524.563 614.614 523.668 612.767 524.301 609.432C524.351 609.162 524.537 608.914 524.903 608.15Z" fill="white"/>
<path d="M489.226 635.629C487.71 632.166 484.552 631.5 481.809 630.209C478.846 628.813 477.8 626.903 478.221 623.657C478.274 623.247 478.46 622.852 478.57 622.491C478.837 622.52 478.921 622.509 478.933 622.532C480.403 625.486 483.311 626.298 486.06 627.403C489.653 628.854 490.888 631.823 489.226 635.629Z" fill="white"/>
<path d="M698.983 435.931C704.413 434.89 708.536 431.639 712.687 427.49C713.172 429.522 713.597 431.069 713.861 432.642C713.908 432.916 713.312 433.529 712.934 433.608C708.324 434.55 703.699 435.422 699.076 436.315C699.044 436.187 699.012 436.059 698.983 435.931Z" fill="white"/>
</svg>
