<svg width="703" height="579" viewBox="0 0 703 579" fill="none" xmlns="http://www.w3.org/2000/svg">
<path d="M620.763 285.154C620.503 280.691 620.046 272.123 619.472 263.562C619.372 262.063 619.675 261.424 621.256 261.185C626.306 260.424 631.349 259.589 636.361 258.6C638.251 258.228 638.875 258.785 638.954 260.592C639.4 270.863 640.141 281.13 640.305 291.409C640.527 305.314 639.289 319.155 637.22 332.903C635.237 346.084 632.37 359.075 628.592 371.871C623.232 390.031 616.091 407.443 607.299 424.208C596.367 445.057 582.999 464.189 567.391 481.778C552.671 498.368 536.225 513.045 518.156 525.886C502.63 536.918 486.162 546.304 468.739 554.033C453.009 561.009 436.809 566.567 420.099 570.623C404.933 574.304 389.564 576.763 373.988 577.909C346.714 579.912 319.674 578.356 292.856 572.854C273.624 568.909 254.999 563.054 236.983 555.318C219.724 547.907 203.37 538.785 187.908 528.1C169.458 515.348 152.68 500.664 137.582 484.074C124.588 469.794 113.128 454.357 103.206 437.799C94.3638 423.044 86.8915 407.61 80.8672 391.484C80.2823 389.917 80.4464 389.1 82.1049 388.457C86.8665 386.604 91.5888 384.651 96.2862 382.645C97.8877 381.96 98.6795 382.324 99.2751 383.944C106.287 403.055 115.561 421.03 126.771 437.995C135.067 450.547 144.366 462.322 154.652 473.321C166.283 485.755 178.906 497.058 192.638 507.115C210.696 520.339 230.092 531.152 250.84 539.574C265.677 545.597 280.925 550.231 296.583 553.479C310.996 556.471 325.563 558.22 340.293 558.817C354.703 559.399 369.052 558.87 383.355 557.199C403.417 554.854 422.949 550.209 441.988 543.426C459.415 537.218 475.961 529.192 491.74 519.589C505.897 510.978 519.062 501.007 531.381 489.915C553.188 470.283 571.375 447.724 585.834 422.201C598.924 399.096 608.362 374.566 614.154 348.615C618.52 329.058 620.685 309.287 620.763 285.154Z" fill="white"/>
<path d="M76.4375 200.954C77.0474 198.941 77.4719 197.32 78.0247 195.745C85.1047 175.542 94.0714 156.243 105.392 138.043C114.719 123.048 125.27 109.014 137.1 95.898C152.395 78.9438 169.433 64.0031 188.205 51.0545C200.267 42.7327 212.904 35.3534 226.137 29.0166C239.59 22.5762 253.422 17.0997 267.703 12.8156C281.985 8.52799 296.519 5.36492 311.3 3.31928C328.784 0.898777 346.35 0.04196 363.966 0.766682C380.063 1.43071 396.034 3.44065 411.792 6.80722C432.715 11.2805 452.935 17.9387 472.373 26.9388C488.912 34.5966 504.631 43.6681 519.408 54.3283C533.457 64.4601 546.551 75.72 558.613 88.1831C568.992 98.9076 578.548 110.3 587.197 122.459C588.659 124.516 588.527 124.787 585.984 125.172C580.245 126.044 574.503 126.893 568.778 127.832C567.423 128.054 566.553 127.729 565.707 126.629C556.609 114.801 546.697 103.695 535.808 93.4954C524.968 83.3421 513.448 74.035 501.078 65.7774C486.23 55.8634 470.601 47.4238 454.119 40.5942C435.336 32.8151 415.912 27.2208 395.835 23.9542C384.118 22.0478 372.344 20.9018 360.463 20.452C343.753 19.8201 327.161 20.834 310.665 23.3473C290.32 26.4461 270.578 31.844 251.471 39.5518C238.16 44.9212 225.341 51.2652 213.054 58.6802C198.43 67.5053 184.741 77.6015 172.029 89.0292C155.334 104.038 140.681 120.796 128.134 139.431C119.755 151.873 112.462 164.897 106.213 178.516C104.397 182.472 102.863 186.556 101.044 190.512C100.627 191.415 99.6926 192.357 98.7759 192.711C92.017 195.317 85.2045 197.78 78.4063 200.283C77.8963 200.469 77.3863 200.629 76.4375 200.954Z" fill="white"/>
<path d="M340.186 303.418C339.163 303.715 338.353 303.99 337.526 304.179C313.739 309.648 289.842 314.685 266.187 320.672C236.17 328.269 206.302 336.466 176.466 344.742C162.617 348.583 148.917 353.01 135.274 357.548C116.42 363.817 97.7521 370.639 79.4833 378.479C61.6104 386.151 44.0799 394.53 27.8727 405.393C19.4695 411.027 11.5514 417.275 5.02425 425.111C4.07906 426.243 3.034 427.203 1.47178 426.342C-0.0975854 425.479 0.084327 423.993 0.622903 422.669C2.91988 417 5.02068 411.227 7.71712 405.75C14.5545 391.859 23.8637 379.693 34.9099 368.915C46.1665 357.93 58.8284 348.794 72.5817 341.147C82.8039 335.463 93.415 330.658 104.333 326.488C121.421 319.962 138.987 315.075 156.974 311.983C172.19 309.37 187.552 307.595 202.86 305.532C211.984 304.3 221.129 303.218 230.267 302.087C232.706 301.783 235.153 301.483 237.604 301.308C238.192 301.266 239.112 301.551 239.376 301.99C244.766 310.933 256.732 312.151 266.412 308.577C271.388 306.742 275.668 303.722 279.548 300.137C280.337 299.409 281.21 298.727 281.817 297.863C283.682 295.204 286.454 294.675 289.382 294.275C302.629 292.476 315.876 290.652 329.112 288.767C333.431 288.153 333.42 288.056 334.248 292.401C334.961 296.153 336.441 299.502 339.255 302.176C339.559 302.472 339.765 302.854 340.186 303.418Z" fill="white"/>
<path d="M315.808 476.523C317.356 478.298 317.135 479.943 316.739 481.507C316.001 484.442 314.003 486.237 311.189 487.223C309.706 487.744 308.232 488.312 306.799 488.958C306.21 489.222 305.743 489.754 304.869 490.436C305.775 490.807 306.289 491.107 306.845 491.235C316.204 493.406 325.688 494.748 335.261 495.47C337.901 495.669 340.544 495.862 343.183 496.066C344.802 496.191 345.48 495.698 345.116 493.877C344.877 492.681 345.227 491.371 345.323 489.968C345.926 490.161 346.183 490.164 346.254 490.282C349.714 495.784 355.092 496.387 360.849 496.048C361.983 495.98 362.415 495.395 362.261 494.302C361.68 490.139 363.874 487.915 367.458 486.362C370.358 485.106 373.621 484.16 374.873 480.665C376.76 482.217 376.671 486.384 374.535 488.329C372.983 489.74 370.986 490.661 369.17 491.778C367.554 492.774 365.921 493.745 364.052 494.873C367.975 497.09 407.819 489.875 413.191 486.152C411.76 485.406 410.537 484.763 409.31 484.124C407.43 483.139 405.337 482.414 403.717 481.107C401.335 479.187 400.864 475.824 402.141 473.214C402.262 473.214 402.469 473.171 402.494 473.221C404.16 476.477 407.266 477.716 410.409 478.904C413.009 479.89 415.024 481.493 415.93 484.22C416.365 485.527 417.257 485.388 418.202 485.038C422.578 483.413 427.015 481.928 431.303 480.093C442.459 475.32 453.185 469.701 463.36 463.068C478.341 453.304 491.923 441.894 503.946 428.635C520.432 410.456 533.343 390.042 542.638 367.319C549.08 351.575 553.435 335.27 555.803 318.452C557.85 303.915 558.521 289.299 557.237 274.64C557.09 272.98 557.486 272.045 559.323 271.788C562.819 271.298 566.3 270.667 569.767 270.003C571.29 269.71 572.017 270.124 572.124 271.73C572.845 282.448 573.005 293.165 572.367 303.89C571.732 314.557 570.28 325.117 568.105 335.574C565.226 349.393 561.046 362.828 555.514 375.808C550.235 388.193 543.954 400.053 536.507 411.298C527.408 425.036 516.954 437.631 505.127 449.08C490.671 463.075 474.596 474.867 456.922 484.492C438.679 494.427 419.432 501.617 399.127 506.008C385.713 508.911 372.18 510.582 358.441 510.981C341.97 511.46 325.627 510.482 309.509 507.165C300.264 505.262 291.155 502.624 282.085 499.968C269.259 496.216 257.168 490.621 245.465 484.231C231.969 476.862 219.396 468.134 207.704 458.123C189.278 442.351 173.867 424.029 161.351 403.269C154.524 391.945 148.835 380.057 144.184 367.669C143.635 366.208 143.935 365.455 145.44 364.991C148.757 363.974 152.067 362.92 155.334 361.753C157.128 361.114 157.977 361.55 158.779 363.349C162.589 371.867 166.262 380.467 170.557 388.743C177.241 401.616 185.708 413.33 195.156 424.325C205.942 436.878 218.115 447.913 231.526 457.595C244.27 466.795 257.87 474.538 272.458 480.332C281.464 483.91 290.838 486.555 300.04 489.636C301.22 490.032 301.898 489.836 302.294 488.522C303.239 485.381 305.45 483.456 308.511 482.403C311.525 481.368 314.535 480.3 315.808 476.523Z" fill="white"/>
<path d="M255.73 274.083C254.852 277.096 253.811 280.077 253.158 283.137C252.744 285.075 252.68 287.16 252.862 289.142C253.115 291.88 254.399 292.365 256.664 290.805C261.436 287.521 264.853 282.983 268.049 278.267C278.617 262.673 286.521 245.665 293.922 228.44C299.95 214.413 305.432 200.154 311.139 185.988C312.244 183.239 313.293 180.462 314.292 177.674C314.502 177.092 314.384 176.389 314.416 175.742C313.703 175.817 312.804 175.642 312.312 176.01C309.691 177.959 306.976 179.848 304.647 182.122C295.071 191.472 287.152 202.175 279.876 213.356C274.366 221.832 269.23 230.546 265.738 240.075C264.204 244.259 263.33 248.682 262.164 253.002C262.021 253.527 261.925 254.066 261.732 254.919C261.155 254.38 260.762 254.102 260.48 253.741C255.644 247.59 250.843 241.41 245.982 235.28C244.876 233.888 245.393 232.588 246.057 231.407C249.142 225.912 251.981 220.236 255.54 215.059C263.99 202.771 274.002 191.861 285.876 182.761C292.046 178.034 298.306 173.343 305.953 171.273C310.504 170.041 315.183 169.245 319.838 168.424C325.987 167.342 332.168 166.424 338.335 165.446C338.756 165.378 339.187 165.386 340.04 165.328C339.448 167.06 338.902 168.552 338.428 170.07C334.822 181.569 330.97 192.996 327.71 204.592C324.999 214.242 322.677 224.027 320.772 233.87C319.399 240.964 318.875 248.232 318.244 255.447C318.065 257.465 318.843 259.564 319.182 261.627C319.428 261.624 319.674 261.616 319.92 261.613C320.098 261.131 320.309 260.656 320.448 260.163C325.57 241.967 331.872 224.188 339.615 206.945C345.861 193.039 352.93 179.573 362.578 167.656C367.097 162.076 372.29 157.214 378.892 154.101C383.889 151.748 388.968 151.473 394.112 153.587C394.846 153.886 395.517 154.34 396.312 154.779C396.063 155.154 395.977 155.422 395.795 155.532C388.776 159.873 384.157 166.478 379.57 173.04C368.285 189.176 359.211 206.581 350.804 224.338C345.265 236.037 340.058 247.897 336.209 260.267C334.415 266.029 333.249 271.995 332.008 277.914C331.644 279.652 330.988 280.509 329.258 280.577C327.56 280.645 325.851 280.916 324.172 280.798C319.82 280.488 316.838 278.117 314.887 274.279C312.601 269.788 311.692 264.951 311.538 260.01C311.206 249.293 312.701 238.732 314.745 228.24C315.108 226.366 315.483 224.491 315.85 222.617C315.697 222.564 315.544 222.51 315.394 222.457C314.98 223.274 314.566 224.088 314.149 224.906C307.69 237.615 301.412 250.428 294.7 263.002C290.33 271.188 285.105 278.892 279.063 285.979C275.289 290.402 271.316 294.647 266.123 297.488C261.476 300.034 256.664 301.362 251.449 299.352C248.757 298.313 247.362 296.228 247.152 293.422C247.048 292.058 247.127 290.627 247.423 289.292C248.724 283.426 252.106 278.656 255.73 274.083Z" fill="white"/>
<path d="M511.1 136.361C510.105 136.597 509.52 136.779 508.921 136.868C504.181 137.578 499.426 138.217 494.7 138.999C493.149 139.256 492.043 138.789 490.959 137.768C480.744 128.193 469.551 119.91 457.585 112.677C439.577 101.792 420.327 93.8595 399.882 88.9364C386.668 85.7555 373.246 83.9812 359.646 83.3957C338.478 82.4889 317.698 84.9594 297.285 90.4287C279.273 95.2554 262.299 102.62 246.253 112.145C230.035 121.774 215.436 133.434 202.414 147.043C189.163 160.891 178.017 176.281 169.068 193.257C162.748 205.242 157.673 217.73 153.732 230.689C153.585 231.167 153.485 231.803 153.139 232.046C152.644 232.399 151.937 232.46 151.324 232.645C151.199 232.146 150.91 231.624 150.974 231.15C151.424 227.847 152.216 224.57 152.38 221.257C152.658 215.634 151.032 210.39 148.192 205.556C147.511 204.392 147.44 203.453 147.975 202.214C156.3 182.972 167.046 165.204 180.425 149.067C203.466 121.274 231.461 100.025 264.675 85.7912C281.456 78.5975 298.89 73.5459 316.952 70.9005C325.174 69.6974 333.488 68.9691 341.784 68.4621C355.355 67.6339 368.898 68.4228 382.355 70.3078C399.351 72.6855 415.865 76.9517 431.869 83.1993C445.073 88.3545 457.663 94.7128 469.637 102.299C480.212 109 490.131 116.576 499.412 124.973C502.872 128.1 506.164 131.417 509.527 134.655C509.966 135.079 510.365 135.561 511.1 136.361Z" fill="white"/>
<path d="M609.906 166.285C602.94 180.615 596.181 194.521 589.419 208.43C589.661 208.58 589.904 208.726 590.146 208.876C590.696 208.194 591.291 207.541 591.787 206.823C599.691 195.335 607.531 183.8 615.513 172.365C617.632 169.327 620.107 166.524 622.557 163.736C624.123 161.955 626.174 161.473 628.585 161.976C631.984 162.687 634.93 163.958 637.003 166.906C637.951 168.256 638.365 169.666 637.769 171.18C636.867 173.461 635.829 175.692 634.802 177.924C630.308 187.727 625.782 197.516 621.309 207.327C620.845 208.348 620.506 209.479 620.399 210.59C620.325 211.361 620.749 212.178 620.949 212.974C621.651 212.642 622.543 212.482 623.025 211.946C624.544 210.265 626.113 208.573 627.305 206.659C633.75 196.327 640.198 185.996 646.419 175.528C650.467 168.713 656.331 164.572 663.803 162.505C672.224 160.177 680.524 161.201 688.495 164.275C695.579 167.006 699.456 172.915 701.329 179.959C704.977 193.693 701.593 206.238 693.874 217.744C684.412 231.853 670.762 240.135 654.672 244.362C645.42 246.794 635.918 248.307 626.484 249.989C610.958 252.752 595.393 255.276 579.856 257.975C554.686 262.348 529.526 266.782 504.363 271.184C503.764 271.288 503.147 271.306 502.38 271.381C502.451 270.938 502.412 270.656 502.533 270.499C504.745 267.582 506.935 264.651 509.232 261.802C509.649 261.284 510.469 260.931 511.158 260.813C523.035 258.785 534.923 256.825 546.8 254.808C556.441 253.17 566.071 251.492 575.701 249.8C591.231 247.069 606.771 244.387 622.279 241.531C631.521 239.828 640.758 238.068 649.9 235.912C661.813 233.102 672.399 227.58 680.809 218.537C688.517 210.251 692.658 200.397 691.067 188.944C689.644 178.684 684.24 170.998 674.307 167.11C668.518 164.843 663.35 166.896 658.628 170.134C652.275 174.489 647.635 180.501 643.519 186.909C639.567 193.068 635.861 199.387 631.831 205.492C628.667 210.286 625.172 214.877 620.553 218.419C618.031 220.354 615.342 221.982 611.946 221.835C608.141 221.671 606.161 219.743 606.001 215.938C605.762 210.39 607.238 205.131 609.207 200.079C612.595 191.383 616.333 182.822 619.918 174.2C620.071 173.829 620.157 173.425 619.929 172.815C619.543 173.258 619.105 173.661 618.784 174.143C611.344 185.253 603.921 196.377 596.481 207.491C593.603 211.789 590.767 216.12 587.778 220.34C585.107 224.117 581.44 225.62 576.864 224.424C573.854 223.638 572.345 222.057 572.712 219.008C573.176 215.156 574.25 211.375 575.116 207.577C575.448 206.134 575.94 204.728 576.357 203.303C576.215 203.235 576.072 203.164 575.929 203.096C575.337 203.953 574.77 204.824 574.153 205.659C568.778 212.924 563.243 220.05 556.227 225.852C551.85 229.472 547.018 232.056 541.143 232.031C536.795 232.014 534.466 230.336 533.136 226.205C531.324 220.579 532.084 214.927 533.339 209.369C535.333 200.54 538.864 192.318 544.071 184.896C547.916 179.416 552.225 174.364 559.005 172.397C562.939 171.255 566.991 171.112 571.004 171.858C576.069 172.797 578.369 175.964 577.331 180.987C575.516 189.769 571.025 196.866 563.203 201.572C560.329 203.3 557.279 203.728 554.187 202.136C552.945 201.497 552.168 201.722 551.676 203.007C549.896 207.652 547.956 212.246 546.415 216.969C545.737 219.044 545.213 221.635 547.471 223.253C549.593 224.777 551.629 223.345 553.448 222.31C558.513 219.426 562.643 215.349 566.146 210.811C571.382 204.024 576.497 197.095 581.023 189.826C584.233 184.667 586.54 178.916 588.934 173.293C590.154 170.423 591.737 168.959 594.969 168.663C599.288 168.267 603.55 167.238 607.837 166.496C608.372 166.403 608.922 166.382 609.906 166.285ZM556.712 199.929C559.259 199.965 561.523 199.23 563.51 197.577C568.454 193.468 571.3 188.109 572.883 181.99C573.055 181.333 573.076 180.608 573.026 179.926C572.912 178.352 572.024 177.717 570.594 178.406C569.256 179.052 567.908 179.862 566.859 180.897C561.766 185.942 557.864 191.886 554.347 198.094C553.659 199.308 554.105 199.855 555.389 199.922C555.831 199.951 556.273 199.929 556.712 199.929Z" fill="white"/>
<path d="M99.6707 271.834C100.923 272.045 101.607 272.055 102.214 272.28C104.728 273.212 107.382 273.922 109.675 275.247C113.288 277.335 114.209 280.931 113.998 284.893C113.766 289.32 112.151 293.222 109.601 296.796C105.331 302.776 99.8954 307.56 94.0745 311.929C81.4697 321.397 67.7734 328.851 52.7896 333.807C47.8283 335.449 42.76 336.963 37.4099 336.106C31.3714 335.135 28.0151 331.133 28.2113 325.31C28.2826 323.214 28.4574 323.1 30.3905 323.739C33.5293 324.771 36.7179 324.724 39.928 324.121C41.187 323.882 41.8932 323.15 42.1429 321.875C44.6967 308.973 49.3762 296.778 54.8155 284.886C58.8531 276.057 63.2116 267.364 67.7592 258.785C72.692 249.482 78.0314 240.393 83.1425 231.182C83.9843 229.668 85.0864 228.89 86.8162 228.622C92.6122 227.726 98.3867 226.694 104.172 225.727C104.532 225.666 104.907 225.687 105.848 225.645C95.0197 241.628 84.9722 257.622 76.3051 274.993C77.2538 274.879 77.7817 274.886 78.2668 274.744C88.3071 271.752 97.3488 266.914 105.502 260.31C112.147 254.926 117.8 248.721 122.045 241.296C124.053 237.783 125.629 234.088 126.122 229.979C126.949 223.071 123.393 218.544 116.413 218.112C111.252 217.794 106.226 218.876 101.336 220.4C84.719 225.584 70.1453 234.227 57.833 246.579C50.8564 253.58 45.2531 261.527 41.5936 270.774C40.8268 272.712 40.2169 272.894 38.8758 271.241C37.6203 269.692 36.3327 268.007 35.6836 266.161C32.6162 257.457 33.4508 249.375 39.5998 242.028C50.9813 228.422 65.0128 218.369 80.7564 210.493C88.1787 206.78 95.8614 203.807 103.986 202.047C110.763 200.583 117.651 199.879 124.467 201.225C137.574 203.81 144.626 213.824 141.451 227.148C139.747 234.313 135.905 240.371 131.154 245.88C122.833 255.519 112.903 263.244 102.182 270.006C101.483 270.452 100.837 270.984 99.6707 271.834ZM54.762 319.309C54.9011 319.437 55.0402 319.569 55.1829 319.698C56.2279 319.359 57.2908 319.069 58.3109 318.673C68.4476 314.735 78.0742 309.773 87.3156 304.068C92.8012 300.68 97.9516 296.839 102.374 292.105C104.468 289.866 106.226 287.414 106.547 284.229C106.847 281.273 105.98 279.645 103.245 278.567C101.561 277.903 99.7706 277.357 97.9801 277.136C90.276 276.182 82.9499 277.564 75.9199 280.852C73.8797 281.805 72.3139 283.062 71.2938 285.065C66.7498 293.99 62.1309 302.876 57.6582 311.836C56.4669 314.221 55.7143 316.813 54.762 319.309Z" fill="white"/>
<path d="M443.8 195.378C443.258 196.541 442.837 197.559 442.323 198.526C435.925 210.633 429.33 222.649 424.347 235.441C423.459 237.719 422.867 240.132 422.375 242.531C422.218 243.306 422.61 244.752 423.138 244.973C423.869 245.28 425.221 245.023 425.856 244.48C427.614 242.974 429.447 241.396 430.71 239.489C435.964 231.549 441.21 223.592 446.083 215.413C450.149 208.59 453.723 201.472 457.428 194.435C458.217 192.936 459.233 192.193 460.895 191.943C465.76 191.208 470.604 190.337 475.458 189.533C476.057 189.434 476.671 189.405 477.712 189.301C477.281 190.226 477.024 190.815 476.732 191.39C470.336 203.992 463.873 216.562 457.589 229.218C456.084 232.253 455.16 235.577 453.972 238.768C453.908 238.943 453.812 239.143 453.837 239.314C453.972 240.193 454.143 241.067 454.304 241.942C455.121 241.592 456.237 241.467 456.704 240.853C459.683 236.94 462.746 233.063 465.347 228.904C470.258 221.043 475.023 213.082 479.556 204.995C482.264 200.162 484.453 195.031 486.79 189.994C487.664 188.116 488.876 187.092 491.016 186.774C496.052 186.024 501.05 185.021 506.521 184.039C506.157 184.935 505.979 185.485 505.718 185.992C500.704 195.756 495.468 205.417 490.745 215.324C488.348 220.357 486.804 225.812 485.06 231.135C484.771 232.017 485.434 233.21 485.659 234.256C486.743 233.949 488.188 233.981 488.851 233.277C491.138 230.86 493.534 228.411 495.197 225.566C501.977 213.971 508.515 202.229 515.11 190.522C516.472 188.105 517.635 185.574 519.012 183.165C519.372 182.533 520.128 181.847 520.806 181.719C526.441 180.637 532.101 179.677 537.755 178.691C537.99 178.652 538.24 178.716 538.803 178.755C538.522 179.498 538.318 180.112 538.058 180.698C532.676 192.807 527.351 204.945 521.883 217.016C515.812 230.421 509.31 243.634 500.853 255.719C497.44 260.595 493.445 265.158 489.197 269.339C484.985 273.483 479.831 276.172 473.536 275.658C469.751 275.347 467.055 273.298 466.449 269.974C466.324 269.281 466.431 268.55 466.431 267.928C466.73 267.814 466.805 267.757 466.845 267.775C472.526 270.32 476.692 267.536 480.519 263.801C485.313 259.121 489.03 253.58 491.972 247.647C496.983 237.536 501.567 227.208 506.321 216.969C506.524 216.53 506.642 216.055 506.41 215.366C505.793 216.323 505.151 217.266 504.566 218.24C500.407 225.177 496.267 232.121 489.889 237.354C485.666 240.821 481.076 243.156 475.376 242.713C471.62 242.42 469.691 240.792 469.766 237.058C469.823 234.306 470.361 231.56 470.704 228.815C470.779 228.219 470.939 227.63 471.057 227.037C470.903 226.955 470.754 226.869 470.6 226.787C470.197 227.34 469.759 227.872 469.395 228.454C465.668 234.398 461.805 240.26 456.683 245.116C454.875 246.833 452.742 248.254 450.605 249.557C449.464 250.253 448.016 250.596 446.664 250.778C442.327 251.356 439.27 248.946 439.516 244.609C439.748 240.553 440.754 236.544 441.471 232.521C441.635 231.607 442.006 230.732 441.892 229.59C441.531 230.093 441.143 230.575 440.811 231.096C437.43 236.426 434.166 241.842 429.554 246.255C425.895 249.753 421.893 252.609 416.725 253.448C409.681 254.591 406.734 252.27 407.337 245.241C407.676 241.267 408.714 237.276 409.973 233.47C413.854 221.757 419.364 210.732 424.861 199.719C425.256 198.93 426.227 198.069 427.058 197.912C432.258 196.92 437.498 196.117 442.723 195.263C442.958 195.221 443.204 195.306 443.8 195.378Z" fill="white"/>
<path d="M181.413 275.033C181.092 275.522 180.764 276.007 180.454 276.504C176.009 283.626 171.758 290.941 165.281 296.46C163.037 298.374 160.302 300.03 157.509 300.901C152.458 302.476 148.97 299.613 149.098 294.336C149.159 291.837 149.765 289.352 150.136 286.864C150.243 286.15 150.39 285.439 150.518 284.729C150.368 284.658 150.218 284.59 150.065 284.518C149.384 285.454 148.692 286.386 148.018 287.324C144.376 292.415 140.663 297.485 135.466 301.112C129.403 305.343 123.243 302.458 122.152 295.129C121.164 288.492 122.598 282.159 124.552 275.943C127.242 267.393 131.058 259.35 136.943 252.495C139.058 250.028 141.466 247.672 144.141 245.855C150.807 241.335 157.562 242.431 164.011 246.512C165.495 247.451 166.276 247.422 166.797 245.798C167.546 243.463 169.119 242.542 171.522 242.228C176.084 241.628 180.6 240.692 185.137 239.914C185.732 239.811 186.346 239.811 187.323 239.732C186.859 240.778 186.574 241.514 186.221 242.21C179.665 255.155 173.042 268.064 166.586 281.055C165.224 283.801 164.382 286.825 163.494 289.781C163.269 290.53 163.776 291.501 163.947 292.369C164.756 292.012 165.851 291.873 166.326 291.259C169.165 287.557 171.986 283.829 174.568 279.949C177.329 275.804 179.94 271.548 182.394 267.211C184.844 262.88 186.859 258.303 189.342 253.994C193.793 246.265 199.639 239.8 207.546 235.448C212.533 232.703 217.89 231.503 223.6 232.124C228.658 232.674 231.818 236.605 232.16 242.738C232.41 247.236 231.397 251.531 229.935 255.719C225.505 268.375 218.589 279.353 207.907 287.678C204.476 290.352 200.609 292.219 196.104 292.208C187.641 292.187 182.372 287.107 182.016 278.639C181.966 277.478 182.009 276.311 182.009 275.147C181.809 275.118 181.613 275.076 181.413 275.033ZM224.763 248.579C224.72 248.207 224.674 247.322 224.506 246.462C223.768 242.667 221.203 241.264 217.694 242.874C216.285 243.52 214.901 244.402 213.77 245.458C205.653 253.056 200.77 262.538 198.191 273.226C197.585 275.74 197.46 278.489 197.734 281.063C198.073 284.222 200.755 285.657 203.734 284.447C205.381 283.779 206.947 282.683 208.26 281.47C213.282 276.832 216.856 271.109 219.905 265.065C222.438 260.035 224.57 254.848 224.763 248.579ZM162.245 253.502C161.764 252.534 161.507 251.078 160.751 250.735C159.877 250.339 158.497 250.753 157.459 251.142C156.617 251.456 155.868 252.174 155.237 252.859C153.789 254.434 152.326 256.019 151.06 257.739C145.614 265.147 141.316 273.212 137.906 281.73C136.697 284.75 136.012 287.992 135.26 291.173C135.092 291.876 135.659 292.751 135.887 293.547C136.668 293.251 137.535 293.087 138.202 292.63C139.022 292.069 139.739 291.316 140.399 290.559C148.578 281.18 155.215 270.802 160.369 259.485C161.19 257.672 161.578 255.665 162.245 253.502Z" fill="white"/>
<path d="M416.707 200.012C416.35 200.99 416.129 201.747 415.808 202.461C408.821 217.994 402.009 233.606 394.768 249.021C389.967 259.242 384.578 269.192 377.901 278.357C374.299 283.301 370.593 288.188 365.646 291.933C361.854 294.807 357.788 296.992 352.863 296.953C348.768 296.921 345.116 295.475 344.252 290.941C344.131 290.309 344.181 289.641 344.146 288.835C344.72 288.931 345.044 288.917 345.308 289.038C349.76 291.055 353.455 289.427 356.74 286.486C362.603 281.234 366.919 274.779 370.475 267.836C374.209 260.538 377.691 253.113 381.268 245.737C381.414 245.433 381.404 245.055 381.161 244.569C379.87 246.383 378.721 248.325 377.259 249.989C374.095 253.573 370.835 257.075 367.49 260.488C365.393 262.63 362.657 263.095 359.768 262.648C356.476 262.141 353.854 258.521 353.483 254.169C352.97 248.161 353.872 242.324 355.652 236.619C358.669 226.941 362.981 217.93 369.947 210.425C371.773 208.458 373.874 206.62 376.16 205.231C382.274 201.522 388.48 202.232 394.454 205.702C395.831 206.502 396.377 206.241 396.765 204.924C397.172 203.542 398.078 202.935 399.483 202.7C404.584 201.85 409.67 200.904 414.763 200.019C415.291 199.933 415.851 200.012 416.707 200.012ZM393.602 213.228C393.003 212.175 392.703 210.954 391.947 210.522C391.269 210.133 389.846 210.283 389.186 210.775C387.389 212.121 385.566 213.581 384.203 215.345C377.366 224.195 372.201 233.995 368.303 244.459C367.518 246.569 367.119 248.839 366.734 251.071C366.612 251.763 366.916 252.902 367.415 253.216C367.85 253.491 368.966 253.07 369.544 252.641C370.596 251.856 371.545 250.899 372.405 249.903C379.182 242.024 384.863 233.381 389.607 224.163C391.344 220.775 392.261 216.973 393.602 213.228Z" fill="white"/>
<path d="M381.086 192.415C382.773 189.769 384.385 187.07 386.201 184.518C386.618 183.929 387.706 183.661 388.53 183.539C402.312 181.476 416.104 179.47 429.89 177.424C445.109 175.168 460.324 172.858 475.547 170.616C494.636 167.806 513.74 165.071 532.829 162.258C548.926 159.884 565.008 157.435 581.101 155.04C602.494 151.859 623.891 148.692 645.284 145.529C662.251 143.019 679.222 140.531 696.185 137.993C697.78 137.753 698.236 138.157 697.958 139.77C697.152 144.487 697.212 144.619 692.558 145.35C681.219 147.139 669.859 148.771 658.517 150.516C643.497 152.826 628.489 155.222 613.466 157.507C594.327 160.42 575.173 163.229 556.034 166.146C541.946 168.292 527.875 170.566 513.786 172.726C502.44 174.464 491.08 176.096 479.731 177.82C459.033 180.962 438.336 184.128 417.641 187.302C406.67 188.984 395.706 190.704 384.738 192.404C383.629 192.575 382.516 192.704 381.403 192.854C381.3 192.707 381.193 192.561 381.086 192.415Z" fill="white"/>
<path d="M393.552 171.49C395.513 168.381 397.104 165.682 398.909 163.133C399.319 162.555 400.446 162.351 401.284 162.226C414.196 160.277 427.111 158.367 440.026 156.457C455.873 154.111 471.72 151.766 487.571 149.442C506.603 146.65 525.642 143.897 544.671 141.088C560.457 138.757 576.229 136.347 592.012 134.015C611.789 131.095 631.578 128.232 651.359 125.319C667.27 122.973 683.177 120.588 699.089 118.225C702.962 117.65 702.962 117.657 702.07 121.438C701.304 124.69 701.296 124.648 697.904 125.169C682.696 127.504 667.491 129.885 652.282 132.209C641.311 133.887 630.326 135.486 619.351 137.157C599.773 140.138 580.195 143.137 560.621 146.139C540.608 149.21 520.599 152.301 500.586 155.361C479.699 158.552 458.809 161.716 437.918 164.896C423.951 167.024 409.987 169.17 396.02 171.298C395.414 171.398 394.793 171.401 393.552 171.49Z" fill="white"/>
<path d="M255.712 367.176C256.461 367.565 256.86 367.897 257.313 367.994C264.261 369.507 266.53 376.512 264.925 382.634C262.332 392.531 255.598 398.353 246.042 400.817C239.159 402.591 232.075 403.583 225.074 404.901C222.484 405.39 221.949 404.954 222.124 402.352C223.073 388.261 224.061 374.17 225.024 360.079C225.348 355.359 225.623 350.639 225.955 345.923C226.179 342.696 226.511 342.268 229.618 341.657C236.048 340.39 242.472 339.047 248.942 338.012C253.593 337.266 258.176 337.602 261.893 341.09C265.549 344.52 266.109 348.862 265.196 353.471C264.293 358.029 261.704 361.65 258.305 364.73C257.488 365.473 256.7 366.244 255.712 367.176ZM253.343 380.15C253.315 376.358 250.412 373.706 246.667 374.28C243.25 374.802 239.858 375.512 236.491 376.305C235.852 376.455 234.986 377.358 234.928 377.979C234.511 382.363 234.301 386.765 233.976 391.156C233.876 392.498 234.447 392.83 235.656 392.591C238.681 391.999 241.72 391.47 244.737 390.86C249.83 389.824 253.383 385.38 253.343 380.15ZM253.508 354.613C253.525 350.411 251.189 348.226 247.034 348.762C244.223 349.122 241.448 349.761 238.645 350.211C237.208 350.443 236.623 351.25 236.533 352.642C236.273 356.673 235.966 360.7 235.674 364.727C235.57 366.148 236.191 366.708 237.603 366.437C240.204 365.934 242.829 365.552 245.407 364.952C250.276 363.82 253.49 359.647 253.508 354.613Z" fill="white"/>
<path d="M443.536 358.429C444.232 348.165 444.959 337.402 445.694 326.638C446.24 318.645 446.839 310.655 447.313 302.658C447.431 300.691 448.198 299.688 450.145 299.32C458.634 297.717 467.08 295.86 475.598 294.422C486.027 292.662 494.066 301.391 492.054 312.104C490.621 319.726 486.28 325.456 479.956 329.705C478.355 330.779 478.059 331.593 478.986 333.332C481.982 338.955 484.807 344.667 487.678 350.354C489.194 353.349 488.784 354.202 485.506 354.906C483.287 355.38 481.044 355.759 478.836 356.284C477.338 356.637 476.482 356.13 475.854 354.759C473.04 348.626 470.108 342.543 467.348 336.384C466.549 334.603 465.568 334.035 463.681 334.549C461.801 335.063 459.854 335.338 457.924 335.649C456.651 335.856 456.098 336.548 456.023 337.816C455.645 344.049 455.182 350.279 454.843 356.516C454.629 360.454 454.354 360.889 450.548 361.653C449.125 361.939 447.702 362.217 446.272 362.449C443.818 362.845 443.533 362.581 443.536 360.064C443.536 359.69 443.536 359.308 443.536 358.429ZM457.111 322.2C457.122 322.2 457.133 322.2 457.143 322.204C457.1 323.022 457.086 323.846 457.004 324.66C456.883 325.885 457.361 326.517 458.623 326.267C463.26 325.356 467.954 324.646 472.512 323.421C477.538 322.072 481.262 316.61 481.015 311.694C480.809 307.56 477.37 304.654 473.29 305.339C469.003 306.06 464.751 307.013 460.467 307.763C458.72 308.067 458.049 308.984 457.953 310.687C457.735 314.528 457.4 318.363 457.111 322.2Z" fill="white"/>
<path d="M349.032 352.535C348.85 354.706 348.643 356.873 348.489 359.043C348.061 365.209 347.68 371.381 347.23 377.543C346.97 381.113 346.503 381.592 343.068 382.288C341.338 382.638 339.615 383.041 337.875 383.334C336.177 383.62 335.343 382.873 335.453 381.138C336.059 371.506 336.698 361.878 337.326 352.249C337.8 344.949 338.26 337.648 338.756 330.347C338.927 327.83 339.205 325.324 339.398 322.807C339.516 321.258 340.361 320.365 341.82 320.069C343.981 319.63 346.143 319.162 348.329 318.884C350.63 318.591 351.193 319.212 351.036 321.497C350.572 328.23 350.102 334.96 349.649 341.693C349.595 342.485 349.641 343.282 349.641 344.674C350.597 343.621 351.232 342.989 351.792 342.293C358.779 333.585 365.767 324.881 372.715 316.142C373.942 314.596 375.272 313.479 377.351 313.243C379.349 313.018 381.296 312.393 383.29 312.097C384.007 311.99 384.788 312.333 385.541 312.468C385.373 313.332 385.448 314.361 384.995 315.025C383.714 316.892 382.22 318.616 380.804 320.39C374.473 328.327 368.164 336.284 361.776 344.178C360.723 345.477 360.745 346.345 361.847 347.573C368.131 354.556 374.359 361.592 380.586 368.629C381.378 369.521 382.167 370.443 382.794 371.453C383.7 372.909 383.283 374.341 381.635 374.734C378.332 375.523 374.976 376.158 371.609 376.583C370.867 376.676 369.797 375.805 369.194 375.105C363.109 368.026 357.082 360.9 351.061 353.763C350.622 353.242 350.373 352.56 350.034 351.957C349.699 352.146 349.367 352.342 349.032 352.535Z" fill="white"/>
<path d="M392.389 368.054C393.495 352.453 394.6 336.852 395.699 321.251C395.898 318.42 396.045 315.585 396.219 312.754C396.387 310.027 396.747 309.555 399.504 309.013C405.939 307.749 412.38 306.531 418.822 305.307C423.405 304.436 427.988 303.568 432.575 302.722C434.972 302.28 435.596 302.861 435.418 305.253C435.318 306.574 435.225 307.895 435.157 309.22C435.011 312.133 434.551 312.74 431.733 313.293C424.247 314.757 416.764 316.238 409.256 317.581C407.469 317.899 406.813 318.67 406.745 320.426C406.617 323.828 406.313 327.224 406.071 330.622C405.907 332.946 406.124 333.171 408.464 332.725C414.289 331.622 420.106 330.497 425.923 329.373C429.058 328.766 429.561 329.216 429.287 332.35C429.169 333.667 429.112 334.992 429.033 336.316C428.894 338.673 428.288 339.458 425.955 339.919C419.956 341.1 413.946 342.246 407.936 343.367C405.122 343.892 405.019 343.988 404.897 346.895C404.748 350.422 404.576 353.953 404.38 357.476C404.241 359.947 404.327 360.075 406.845 359.597C413.968 358.247 421.083 356.859 428.202 355.488C428.634 355.406 429.073 355.345 429.508 355.273C431.152 355.002 431.89 355.716 431.78 357.362C431.655 359.186 431.498 361.011 431.427 362.835C431.355 364.656 430.414 365.523 428.67 365.852C420.306 367.426 411.956 369.061 403.595 370.668C400.749 371.214 397.903 371.781 395.046 372.274C392.503 372.713 392.164 372.363 392.357 369.764C392.399 369.197 392.428 368.629 392.46 368.065C392.439 368.058 392.414 368.058 392.389 368.054Z" fill="white"/>
<path d="M317.965 387.115C316.489 387.118 315.772 386.258 315.29 385.037C314.434 382.866 313.503 380.721 312.69 378.536C312.198 377.215 311.402 376.879 310.054 377.14C302.507 378.614 294.949 380.05 287.388 381.449C285.954 381.713 285.012 382.384 284.406 383.73C283.108 386.604 281.688 389.421 280.368 392.284C279.616 393.916 278.453 394.833 276.634 395.062C274.697 395.308 272.789 395.786 270.856 396.047C270.242 396.129 269.29 396.051 269.012 395.669C268.712 395.258 268.844 394.323 269.101 393.755C270.503 390.653 272.001 387.59 273.467 384.516C280.828 369.086 288.194 353.66 295.552 338.23C297.018 335.156 298.459 332.068 299.903 328.983C300.47 327.773 301.291 326.549 302.685 326.927C303.556 327.163 304.462 328.237 304.843 329.148C312.119 346.552 319.321 363.984 326.536 381.413C327.82 384.516 327.389 385.269 324.079 385.887C322.035 386.269 320.005 386.704 317.965 387.115ZM300.613 349.468C300.035 350.325 299.586 350.836 299.311 351.432C296.615 357.198 293.936 362.967 291.293 368.757C291.029 369.339 291.036 370.046 290.919 370.692C291.582 370.739 292.274 370.921 292.905 370.803C297.424 369.964 301.926 369.015 306.448 368.204C308.053 367.919 308.232 367.251 307.65 365.866C305.642 361.103 303.72 356.309 301.744 351.535C301.487 350.929 301.112 350.372 300.613 349.468Z" fill="white"/>
<path d="M522.204 306.742C522.828 305.896 523.249 305.371 523.616 304.811C528.217 297.874 532.765 290.898 537.455 284.022C538.083 283.105 539.338 282.394 540.44 282.069C542.609 281.434 544.87 281.077 547.114 280.745C547.845 280.638 548.644 280.959 549.411 281.084C549.239 281.898 549.289 282.855 548.865 283.505C544.185 290.691 539.427 297.831 534.698 304.986C532.54 308.249 530.511 311.601 528.206 314.757C526.355 317.292 526.737 320.183 526.509 322.943C525.949 329.73 525.61 336.534 525.193 343.332C524.968 346.994 524.604 347.444 520.977 348.194C519.496 348.501 518.013 348.812 516.515 349.015C514.1 349.344 513.615 348.794 513.793 346.348C514.382 338.234 514.906 330.115 515.52 322.004C515.68 319.887 515.166 318.141 513.922 316.37C508.657 308.895 503.521 301.326 498.356 293.783C496.823 291.544 497.294 290.334 499.933 289.766C502.273 289.259 504.637 288.863 506.977 288.356C508.254 288.078 509.135 288.453 509.884 289.527C513.376 294.547 516.911 299.545 520.442 304.539C520.902 305.196 521.444 305.796 522.204 306.742Z" fill="white"/>
<path d="M377.034 295.65C378.671 293.679 379.987 292.183 381.204 290.616C383.483 287.674 385.619 284.618 388.002 281.762C388.765 280.845 390.038 279.999 391.187 279.817C408.129 277.118 425.089 274.54 442.041 271.923C446.029 271.309 450.02 270.706 453.994 270.006C455.477 269.746 456.098 270.103 456.451 271.67C456.904 273.676 457.649 275.658 458.562 277.507C459.369 279.142 458.898 279.535 457.311 279.838C446.714 281.844 436.124 283.894 425.549 285.996C410.519 288.988 395.499 292.041 380.473 295.061C379.509 295.25 378.536 295.393 377.034 295.65Z" fill="white"/>
<path d="M172.147 205.238C172.404 201.054 175.09 198.184 178.821 197.627C191.54 195.728 204.244 193.753 216.96 191.818C234.722 189.116 252.484 186.424 270.247 183.736C271.153 183.6 272.073 183.539 272.9 183.45C270.582 185.938 268.374 188.402 266.042 190.744C265.574 191.211 264.654 191.308 263.919 191.422C237.005 195.56 210.087 199.68 183.165 203.792C180.173 204.249 177.177 204.66 174.181 205.074C173.514 205.163 172.839 205.181 172.147 205.238Z" fill="white"/>
<path d="M164.254 225.662C165.192 223.51 165.863 221.532 166.915 219.783C167.332 219.09 168.559 218.679 169.479 218.533C180.001 216.855 190.537 215.245 201.07 213.631C218.397 210.979 235.724 208.33 253.051 205.692C253.772 205.581 254.506 205.574 255.231 205.517C255.327 205.67 255.423 205.824 255.519 205.977C253.461 208.233 251.703 210.929 249.249 212.596C247.484 213.799 244.801 213.713 242.508 214.067C222.877 217.091 203.242 220.09 183.607 223.078C177.747 223.97 171.88 224.806 166.016 225.652C165.595 225.716 165.16 225.662 164.254 225.662Z" fill="white"/>
<path d="M284.221 521.488C283.169 525.622 282.113 529.756 281.068 533.894C280.712 535.301 280.333 536.7 280.041 538.121C279.67 539.92 278.568 540.024 277.063 539.635C275.565 539.249 274.37 538.721 274.798 536.857C275.333 534.522 275.904 532.195 276.485 529.871C277.84 524.426 279.21 518.986 280.58 513.545C280.794 512.688 280.947 511.796 281.314 511.007C281.682 510.214 282.277 509.528 282.773 508.797C283.372 509.386 284.132 509.886 284.546 510.585C286.026 513.077 287.392 515.637 288.794 518.175C290.834 521.874 292.856 525.583 294.904 529.278C295.382 530.142 295.945 530.96 296.751 532.245C297.133 531.213 297.4 530.635 297.557 530.028C298.756 525.39 299.918 520.739 301.128 516.105C301.687 513.959 302.005 513.809 304.216 514.348C306.642 514.941 306.888 515.216 306.36 517.354C304.223 526.047 302.062 534.733 299.854 543.408C299.69 544.058 299.077 544.594 298.674 545.186C298.082 544.708 297.268 544.351 296.937 543.733C293.313 537.022 289.768 530.267 286.187 523.53C285.791 522.784 285.298 522.088 284.853 521.367C284.635 521.41 284.428 521.449 284.221 521.488Z" fill="white"/>
<path d="M425.635 528.678C425.695 536.9 421.626 541.655 415.227 541.877C411.653 542.002 408.757 540.534 406.745 537.718C402.743 532.113 400.885 525.819 401.991 518.943C402.754 514.205 405.782 511.399 410.522 510.492C414.71 509.693 417.984 511.306 420.477 514.516C423.93 518.946 425.271 524.166 425.635 528.678ZM407.013 522.295C407.505 526.761 408.3 531.149 411.289 534.755C412.545 536.272 414.175 537.261 416.275 536.704C418.405 536.143 419.592 534.612 419.856 532.516C420.563 526.897 419.257 521.752 415.708 517.304C414.46 515.74 412.702 515.03 410.636 515.633C408.639 516.215 407.744 517.743 407.351 519.639C407.177 520.496 407.127 521.381 407.013 522.295Z" fill="white"/>
<path d="M453.391 520.121C453.387 528.511 448.85 533.08 442.08 532.402C440.194 532.213 438.025 531.388 436.648 530.131C431.106 525.073 428.416 518.636 428.691 511.085C428.859 506.43 431.452 503.481 435.735 502.017C439.994 500.564 443.75 501.66 446.756 504.902C451.044 509.521 453.052 515.134 453.391 520.121ZM448.098 520.746C447.502 516.594 446.075 511.913 442.327 508.225C440.722 506.644 438.86 506.201 436.78 507.029C434.762 507.836 434.005 509.578 434.027 511.585C434.084 516.672 435.81 521.206 439.02 525.126C440.547 526.993 442.516 528.061 445.027 527.197C447.045 526.508 448.08 524.562 448.098 520.746Z" fill="white"/>
<path d="M480.217 508.415C480.224 513.788 478.365 517.051 474.324 518.911C470.18 520.817 466.367 520.221 462.897 517.261C458.72 513.698 456.191 509.096 454.725 503.913C453.127 498.258 454.807 493.57 459.094 490.982C463.624 488.247 468.061 488.733 472.477 493.02C477.039 497.447 479.735 502.935 480.217 508.415ZM474.884 508.868C474.346 504.927 472.377 500.907 469.27 497.451C468.486 496.58 467.505 495.798 466.463 495.259C463.103 493.52 459.569 495.412 459.633 499.186C459.736 505.277 462.458 510.339 467.387 513.845C471.029 516.433 474.824 514.091 474.884 508.868Z" fill="white"/>
<path d="M342.159 534.265C342.159 529.974 342.209 525.683 342.134 521.395C342.105 519.653 342.665 518.878 344.52 518.896C349.438 518.946 354.361 518.893 359.279 518.793C361.095 518.757 361.704 519.489 361.708 521.267C361.712 523.052 361.084 523.755 359.279 523.752C356.13 523.748 352.977 523.987 349.827 524.005C348.315 524.016 347.702 524.541 347.659 526.101C347.516 531.445 347.473 531.445 352.752 531.438C354.393 531.438 356.033 531.449 357.67 531.42C359.746 531.388 359.682 532.827 359.743 534.276C359.807 535.754 359.29 536.554 357.717 536.55C355.256 536.543 352.795 536.632 350.337 536.604C348.704 536.586 347.851 537.15 347.998 538.931C348.108 540.249 348.069 541.584 348.023 542.905C347.965 544.519 348.764 544.947 350.259 544.879C353.408 544.736 356.565 544.754 359.714 544.633C361.455 544.565 362.05 545.375 362.068 547.025C362.086 548.646 361.719 549.763 359.825 549.77C354.778 549.792 349.731 549.817 344.684 549.884C343.001 549.906 342.512 549.038 342.526 547.514C342.562 543.094 342.54 538.678 342.54 534.258C342.416 534.269 342.287 534.269 342.159 534.265Z" fill="white"/>
<path d="M325.281 516.986C329.472 517.14 333.053 518.446 336.07 521.249C336.844 521.967 337.814 522.659 336.755 523.919C335.1 525.886 333.987 526.261 332.61 525.194C328.48 521.995 323.836 521.595 320.17 524.123C316.207 526.854 314.606 531.888 316.15 536.732C317.98 542.469 324.196 544.983 330.235 542.391C331.319 541.927 332.225 541.448 333.217 542.698C335.3 545.315 335.164 546.104 332.079 547.567C324.182 551.316 314.527 547.66 311.007 539.828C306.958 530.824 311.959 521.199 319.463 518.418C321.329 517.729 323.34 517.45 325.281 516.986Z" fill="white"/>
<path d="M248.068 528.446C243.214 528.057 239.508 525.747 236.926 521.631C235.834 519.892 236.112 519.432 238.274 517.904C239.783 516.84 240.286 517.843 241.095 518.832C242.237 520.228 243.435 521.659 244.88 522.695C246.613 523.937 248.892 523.584 250.112 522.306C251.332 521.028 251.482 519.139 250.183 517.25C248.831 515.28 247.194 513.509 245.753 511.595C242.914 507.818 242.632 504.37 244.801 500.889C246.463 498.222 249.837 496.737 252.951 497.201C257.17 497.826 260.191 500.25 262.706 503.495C263.583 504.627 263.452 505.541 262.239 506.34C261.065 507.115 259.981 508.104 258.629 506.569C257.556 505.348 256.504 504.034 255.202 503.102C253.194 501.664 251.314 501.792 250.008 503.081C248.696 504.377 248.66 506.173 250.08 508.257C250.889 509.45 251.974 510.453 252.812 511.631C254.082 513.42 255.583 515.144 256.389 517.14C258.733 522.934 254.331 528.764 248.068 528.446Z" fill="white"/>
<path d="M387.531 542.387C388.555 542.337 389.219 542.359 389.868 542.266C391.74 541.998 393.606 541.666 395.478 541.391C397.554 541.084 398.192 541.648 398.389 543.769C398.492 544.908 398.114 545.597 396.941 545.772C391.64 546.571 386.347 547.421 381.04 548.164C379.378 548.396 378.918 547.417 379.852 545.711C382.274 541.284 384.746 536.879 387.189 532.463C387.831 531.302 388.455 530.135 389.079 528.967C390.709 525.919 390.499 523.245 388.512 521.745C386.283 520.064 383.54 520.478 381.026 522.873C379.232 524.58 378.715 524.601 377.092 523.223C376.204 522.466 376.122 521.734 376.739 520.756C379.289 516.736 385.324 514.669 389.786 516.322C394.932 518.229 397.037 523.955 394.405 529.207C392.486 533.041 390.396 536.786 388.387 540.577C388.134 541.052 387.924 541.548 387.531 542.387Z" fill="white"/>
<path d="M275.094 507.658C274.516 509.271 273.86 511.106 273.2 512.938C270.782 519.635 268.367 526.329 265.942 533.023C265.132 535.258 264.772 535.297 262.015 534.433C260.071 533.826 260.249 532.659 260.777 531.199C263.773 522.902 266.773 514.605 269.712 506.29C270.257 504.745 271.106 504.47 272.419 505.226C273.41 505.801 275.076 505.583 275.094 507.658Z" fill="white"/>
<path d="M417.196 411.919C417.349 413.144 417.353 414.411 417.695 415.579C418.266 417.535 418.69 419.688 419.835 421.291C421.65 423.833 422.007 426.282 420.884 429.074C420.37 430.355 419.935 431.683 419.293 432.901C418.369 434.646 416.525 434.714 415.352 433.14C412.68 429.563 412.552 424.133 415.198 420.645C416.482 418.953 416.757 417.157 416.525 415.136C416.404 414.072 416.504 412.983 416.504 411.909C416.736 411.912 416.964 411.916 417.196 411.919Z" fill="white"/>
<path d="M360.713 428.681C360.788 429.459 360.899 430.237 360.931 431.016C361.042 433.932 361.819 436.603 363.745 438.866C364.976 440.312 365.446 442.04 364.947 443.818C364.359 445.924 363.567 447.991 362.668 449.991C362.044 451.376 360.342 451.465 359.183 450.358C356.794 448.074 355.923 441.112 357.999 438.474C359.747 436.253 360.271 433.94 359.943 431.251C359.84 430.42 360.011 429.552 360.057 428.702C360.275 428.695 360.496 428.688 360.713 428.681Z" fill="white"/>
<path d="M302.033 416.047C302.033 416.864 302.136 417.696 302.015 418.496C301.655 420.852 302.008 422.887 303.588 424.854C305.935 427.778 305.514 434.14 303.06 436.924C301.633 438.541 299.893 438.399 298.994 436.492C298.323 435.071 297.696 433.6 297.3 432.087C296.654 429.62 297.036 427.431 298.527 425.118C299.868 423.037 300.299 420.363 301.081 417.932C301.266 417.353 301.241 416.711 301.309 416.096C301.548 416.082 301.79 416.064 302.033 416.047Z" fill="white"/>
<path d="M414.838 474.828C413.186 470.733 409.488 469.976 406.26 468.519C402.108 466.649 400.731 464.36 401.22 460.083C401.284 459.505 401.527 458.948 401.805 457.973C402.286 458.687 402.458 459.069 402.739 459.337C403.931 460.479 405.011 461.84 406.406 462.647C408.293 463.743 410.501 464.271 412.445 465.281C415.637 466.945 416.842 471.34 414.838 474.828Z" fill="white"/>
<path d="M316.182 462.175C318.24 464.453 317.569 468.591 314.976 470.6C313.849 471.475 312.505 472.096 311.199 472.703C308.31 474.046 304.997 474.763 303.827 478.415C302.133 476.648 302.389 472.207 304.326 470.497C305.707 469.28 307.408 468.273 309.138 467.63C312.034 466.559 314.823 465.502 316.182 462.175Z" fill="white"/>
<path d="M298.926 484.363C297.186 480.35 293.673 479.261 290.537 477.584C286.297 475.317 285.066 472.868 285.958 469.119C286.076 468.619 286.336 468.148 286.782 467.027C288.622 471.332 292.328 472.207 295.545 473.814C299.461 475.77 300.799 479.529 298.926 484.363Z" fill="white"/>
<path d="M358.202 491.632C357.039 487.951 353.847 487.084 350.869 485.866C349.538 485.32 348.279 484.567 347.059 483.792C344.873 482.403 343.435 478.094 345.722 475.202C347.141 479.044 350.601 479.861 353.84 481.086C358.369 482.799 360.242 486.309 359.061 490.614C358.983 490.896 358.819 491.15 358.69 491.418C358.53 491.489 358.366 491.56 358.202 491.632Z" fill="white"/>
<path d="M299.141 470.183C298.174 466.306 295.274 465.028 292.36 463.739C291.269 463.257 290.227 462.661 289.179 462.086C287.353 461.086 286.486 459.501 286.464 457.441C286.45 455.845 286.461 454.246 286.461 452.65C286.696 452.593 286.928 452.536 287.164 452.479C287.438 452.882 287.659 453.343 288.002 453.682C289.354 455.017 290.663 456.413 292.15 457.584C293.013 458.262 294.183 458.548 295.21 459.026C301.263 461.84 300.189 463.443 299.804 469.269C299.793 469.419 299.601 469.562 299.141 470.183Z" fill="white"/>
<path d="M431.306 463.728C433.542 465.949 433.086 469.958 430.585 471.986C429.519 472.853 428.313 473.585 427.083 474.199C424.169 475.652 420.998 476.73 419.689 480.397C417.567 476.434 418.826 472.089 422.289 470.34C423.302 469.829 424.312 469.308 425.357 468.869C427.878 467.809 430.243 466.57 431.306 463.728Z" fill="white"/>
<path d="M374.809 465.745C376.582 469.79 375.351 473.71 371.799 475.681C371.028 476.106 370.254 476.538 369.448 476.887C366.584 478.126 363.891 479.554 362.707 482.885C360.617 479.326 361.726 474.838 364.95 473.014C365.988 472.425 367.044 471.85 368.143 471.39C371.545 469.954 371.556 469.979 374.809 465.745Z" fill="white"/>
<path d="M317.898 433.036C317.941 434.411 318.201 435.821 317.977 437.149C317.52 439.87 315.869 441.926 313.411 443.072C309.969 444.675 305.985 445.4 304.455 449.769C304.22 449.676 303.981 449.584 303.745 449.487C303.585 448.448 303.189 447.384 303.307 446.381C303.749 442.586 305.921 440.055 309.445 438.674C310.383 438.306 311.36 438.038 312.309 437.695C314.61 436.86 316.3 435.368 316.967 432.801C317.278 432.879 317.588 432.958 317.898 433.036Z" fill="white"/>
<path d="M344.794 446.003C346.146 450.048 349.745 450.758 353.012 452.004C356.482 453.329 358.89 456.956 358.597 460.39C358.533 461.154 358.237 461.897 358.048 462.654C357.677 462.557 357.485 462.564 357.453 462.493C355.937 459.241 353.076 457.873 349.88 456.781C346.321 455.564 344.07 453.061 343.778 449.17C343.703 448.195 344.063 447.185 344.227 446.192C344.413 446.124 344.602 446.064 344.794 446.003Z" fill="white"/>
<path d="M565.336 231.807C565.974 234.702 566.588 237.262 567.044 239.846C567.105 240.196 566.41 240.985 565.974 241.067C561.948 241.817 557.906 242.51 553.844 243.052C553.366 243.116 552.442 242.253 552.3 241.674C552.16 241.121 552.578 240.103 553.074 239.764C556.701 237.279 560.407 234.912 564.091 232.513C564.341 232.349 564.615 232.214 565.336 231.807Z" fill="white"/>
<path d="M414.446 445.732C414.057 445.685 413.953 445.699 413.939 445.671C412.327 441.99 408.885 440.866 405.543 439.516C402.429 438.256 400.66 435.771 400.207 432.472C400.075 431.505 400.471 430.466 400.624 429.459C401.099 429.541 401.302 429.523 401.331 429.588C402.836 432.747 405.782 433.804 408.789 434.896C412.933 436.403 415.355 439.87 415.034 443.607C414.973 444.339 414.642 445.057 414.446 445.732Z" fill="white"/>
<path d="M418.626 465.692C418.512 463.778 418.18 461.89 418.38 460.062C418.494 459.019 419.297 457.848 420.131 457.141C421.308 456.138 422.742 455.378 424.172 454.75C427.086 453.475 430.093 452.393 430.842 448.598C431.01 448.659 431.174 448.72 431.342 448.78C431.488 449.184 431.748 449.587 431.759 449.994C431.959 456.67 432.083 456.895 426.437 459.805C425.489 460.294 424.372 460.551 423.562 461.197C421.918 462.522 420.427 464.035 418.626 465.692Z" fill="white"/>
<path d="M361.969 467.737C360.884 466.334 361.113 461.915 362.753 460.151C363.674 459.162 364.822 458.277 366.038 457.702C369.266 456.178 372.836 455.189 374.313 451.24C374.72 451.601 374.987 451.722 375.055 451.915C376.089 454.85 373.978 459.969 371.174 461.368C369.712 462.1 368.132 462.668 366.812 463.607C365.093 464.831 363.574 466.349 361.969 467.737Z" fill="white"/>
<path d="M299.715 455.089C297.924 451.486 294.696 450.105 291.565 448.734C287.684 447.035 286.935 443.7 286.589 440.087C286.532 439.495 286.949 438.856 287.242 437.942C287.716 438.502 288.03 438.734 288.155 439.041C289.015 441.119 290.662 442.269 292.638 443.136C294.365 443.897 296.12 444.657 297.693 445.678C300.482 447.502 301.388 451.597 299.715 455.089Z" fill="white"/>
<path d="M430.964 434.418C432.669 437.099 431.153 442.444 428.25 444.146C426.566 445.132 424.697 445.824 423.085 446.91C421.473 447.999 420.082 449.412 418.43 450.822C418.527 450.905 418.195 450.762 418.12 450.533C416.85 446.574 418.548 442.665 422.304 440.866C423.042 440.512 423.827 440.251 424.565 439.898C428.428 438.027 428.228 438.566 430.964 434.418Z" fill="white"/>
<path d="M304.166 464.157C302.13 460.926 302.989 456.799 305.778 455.071C307.052 454.282 308.464 453.696 309.869 453.157C312.73 452.058 315.341 450.676 316.657 447.538C318.262 449.98 317.962 453.568 315.947 455.331C314.695 456.427 313.176 457.302 311.642 457.97C308.635 459.276 305.425 460.226 304.166 464.157Z" fill="white"/>
<path d="M401.741 443.332C403.364 447.824 407.002 448.773 410.394 450.073C414.249 451.554 415.915 454.182 415.298 457.913C415.194 458.541 414.902 459.141 414.449 459.858C412.534 455.706 408.328 455.167 405.004 453.318C401.323 451.269 400.225 449.002 401.002 444.907C401.063 444.575 401.291 444.271 401.741 443.332Z" fill="white"/>
<path d="M357.942 477.069C356.08 472.818 352.203 472 348.836 470.415C345.198 468.701 343.914 466.356 344.431 462.372C344.495 461.868 344.724 461.383 344.859 460.94C345.187 460.976 345.291 460.961 345.305 460.99C347.11 464.617 350.68 465.613 354.054 466.97C358.466 468.751 359.982 472.396 357.942 477.069Z" fill="white"/>
<path d="M615.46 231.896C622.126 230.618 627.187 226.626 632.284 221.532C632.88 224.027 633.401 225.927 633.725 227.858C633.782 228.194 633.051 228.947 632.587 229.043C626.927 230.2 621.249 231.271 615.574 232.367C615.535 232.21 615.496 232.053 615.46 231.896Z" fill="white"/>
</svg>
